<svg version="1.1" id="Layer_1" xmlns="http://www.w3.org/2000/svg" xmlns:xlink="http://www.w3.org/1999/xlink" x="0px" y="0px"
	 width="100%" viewBox="0 0 1024 1024" enable-background="new 0 0 1024 1024" xml:space="preserve">
<path fill="#000000" opacity="1.000000" stroke="none" 
	d="
M361.726318,518.742432 
	C357.755402,528.236450 359.552490,537.342163 361.470612,546.533325 
	C364.153046,559.386902 366.549561,572.300476 369.039246,585.193909 
	C370.299072,591.718079 367.098755,596.534790 359.829224,598.250488 
	C355.324615,599.313599 350.596832,599.397827 346.046783,600.308777 
	C336.552277,602.209656 334.081787,605.709167 335.059052,615.217896 
	C335.615356,620.630493 332.362732,624.597290 326.920624,625.117065 
	C325.454498,625.257141 323.982635,625.336975 321.911133,625.488464 
	C322.798859,634.401123 317.927460,637.958191 309.910950,639.598877 
	C304.945251,640.615112 303.474854,645.411011 303.210388,650.206543 
	C302.449066,664.011292 295.919464,671.557739 282.424225,672.909729 
	C275.944916,673.558899 269.587982,671.355103 263.533844,668.963440 
	C257.797882,666.697449 252.138718,664.135803 247.098419,660.562439 
	C235.556625,652.379761 223.535614,653.439270 211.634033,658.975647 
	C198.054413,665.292603 188.793259,676.494019 180.434753,688.505493 
	C179.153076,690.347290 178.499435,692.774231 175.590912,693.809692 
	C173.937775,689.369385 174.569656,684.849548 174.935486,680.556946 
	C178.485367,638.901550 195.245209,603.773254 226.805222,575.918823 
	C243.307983,561.353638 261.224274,548.532288 277.819336,534.098938 
	C295.291168,518.903076 309.813660,501.599792 316.800903,478.927612 
	C322.402191,460.752594 323.241058,442.204895 320.441223,423.619873 
	C314.936768,387.081818 296.759918,358.286316 265.899506,337.745392 
	C221.111389,307.934052 161.193573,311.003937 119.594269,345.134216 
	C118.859367,345.737152 117.978111,346.161743 117.125908,346.694061 
	C115.855225,344.816742 117.337387,343.994629 118.140381,343.175903 
	C139.976074,320.912476 165.868271,306.948151 197.274261,303.551636 
	C228.993591,300.121277 258.344391,307.858887 286.698975,321.107178 
	C319.401459,336.386902 346.052246,358.686798 364.546112,389.877258 
	C382.835907,420.723480 385.372681,453.463379 374.658508,487.523193 
	C371.295166,498.215088 366.663696,508.313843 361.726318,518.742432 
z"/>
<path fill="#000000" opacity="1.000000" stroke="none" 
	d="
M125.687889,533.074219 
	C130.799484,536.588318 135.800201,539.277283 141.930664,538.881958 
	C142.585556,538.839783 143.605545,539.314575 143.862534,539.024170 
	C147.305313,535.133362 152.959045,533.944641 156.078247,530.427124 
	C159.686859,526.357605 160.730637,520.231689 162.347275,514.797546 
	C162.796051,513.288940 161.567276,512.354370 160.927017,511.227264 
	C159.903381,509.425323 159.011871,507.300171 160.127289,505.531219 
	C162.345993,502.012726 161.035172,498.841125 159.926956,495.533112 
	C154.956070,480.694794 150.007233,465.849030 145.013046,451.018555 
	C144.399475,449.196564 143.972672,447.203644 142.383377,445.998505 
	C140.663818,446.493652 140.625626,447.743713 140.394165,448.858398 
	C138.263367,459.120514 136.129013,469.381897 134.027863,479.650085 
	C133.799927,480.763885 133.232269,482.448730 133.742020,482.971313 
	C137.751556,487.081421 136.700546,491.766266 136.695190,496.829742 
	C136.691162,500.636261 138.577545,505.498718 144.588776,506.130981 
	C149.047211,506.599976 151.915131,511.934723 150.744598,515.954529 
	C149.385590,520.621521 144.519104,523.358887 140.233139,521.867065 
	C135.635910,520.266907 133.434479,515.679871 135.017197,510.998718 
	C136.842331,505.600586 133.580704,500.837006 128.052795,498.858582 
	C123.851173,497.354858 120.864616,498.370239 117.504669,500.534271 
	C111.623917,504.321869 105.586418,507.867615 99.586807,511.468384 
	C97.101929,512.959717 95.268562,514.515137 94.753242,517.848267 
	C93.936111,523.133728 89.126328,526.151550 84.570412,525.034302 
	C80.146103,523.949341 77.649918,519.383057 78.748009,514.383240 
	C79.702255,510.038361 84.101051,507.759125 89.493202,509.247284 
	C91.824318,509.890656 93.675751,509.644745 95.634460,508.450378 
	C102.746384,504.113647 109.932098,499.896118 116.997757,495.485901 
	C122.257507,492.202881 122.354927,488.736145 117.447624,484.993011 
	C113.934845,482.313568 110.816177,479.450592 105.447495,481.055939 
	C101.327095,482.288086 97.355263,478.393158 96.782341,474.022125 
	C96.219818,469.730438 99.171783,465.762665 103.546188,464.930847 
	C107.967758,464.090057 112.887390,466.979889 112.959320,471.654266 
	C113.066978,478.650208 118.751633,480.120331 122.874352,482.885010 
	C125.242302,484.472961 128.232712,482.924194 128.947449,479.780151 
	C131.491684,468.588440 133.903519,457.364807 136.190186,446.117645 
	C136.697403,443.622925 131.103195,438.918976 128.374481,439.527191 
	C123.668739,440.576111 119.049805,442.008484 114.366798,443.168335 
	C112.386444,443.658813 111.995911,445.315735 111.255463,446.766693 
	C109.094086,451.002167 105.473152,452.358673 101.206375,450.997620 
	C97.519669,449.821533 95.484283,446.651642 95.941109,442.830109 
	C96.439926,438.657257 98.928322,435.791931 103.546906,435.683228 
	C105.336914,435.641083 106.770493,435.170593 107.846054,433.658325 
	C115.260193,423.233795 122.697266,412.825623 129.386963,401.555908 
	C121.288673,406.325195 113.195679,411.103485 105.088821,415.858124 
	C102.694878,417.262177 103.275108,420.002594 102.236740,422.016144 
	C100.356201,425.662842 97.349464,427.729980 93.341003,427.048462 
	C89.329056,426.366394 86.895935,423.491394 86.778206,419.336945 
	C86.660858,415.196106 88.828682,412.403992 92.883522,411.292938 
	C93.814430,411.037872 95.081902,410.742401 95.792076,411.156189 
	C100.457397,413.874420 104.007713,411.148865 107.702217,408.972076 
	C116.117722,404.013702 124.532776,399.054596 133.680450,393.664154 
	C128.689331,391.567291 125.044365,388.702637 120.029152,392.001068 
	C116.205765,394.515686 111.073891,392.302551 109.227196,388.123077 
	C107.484924,384.179993 109.266068,379.542725 113.288094,377.550293 
	C117.068062,375.677734 121.943001,377.436920 123.864395,381.366821 
	C126.393860,386.540466 131.877197,388.635406 137.522827,387.857269 
	C143.200134,387.074738 148.988907,387.647644 154.472580,385.089172 
	C159.680389,382.659393 159.997833,382.186157 156.178101,377.811462 
	C152.562180,373.670258 148.896301,369.572235 145.313324,365.402863 
	C143.847519,363.697174 142.481842,362.716766 139.856155,362.877655 
	C136.478546,363.084564 134.123093,360.706055 134.178711,357.239777 
	C134.230072,354.040588 136.441071,351.869812 139.665131,351.869110 
	C143.849167,351.868195 147.403320,350.147247 151.128311,348.739075 
	C154.199356,347.578094 156.426788,346.015289 157.644119,342.564240 
	C159.097214,338.444824 163.617447,337.010803 167.604492,338.592010 
	C172.191071,340.411041 181.148529,338.015411 183.997116,334.207947 
	C187.910736,328.976990 190.000336,328.809601 194.567596,333.458344 
	C197.225769,336.163940 200.856918,336.257324 204.181198,337.133484 
	C209.333755,338.491516 214.231750,340.681091 219.586639,336.505005 
	C222.702652,334.074890 228.074142,336.954834 229.892639,340.872894 
	C231.632858,344.622345 230.225037,349.032990 226.570816,351.280029 
	C222.731522,353.640808 217.452423,353.105682 215.662094,349.080109 
	C213.307129,343.784912 208.781982,343.292053 204.395416,342.213806 
	C200.045685,341.144531 196.087540,339.562347 190.974808,340.602905 
	C186.125824,341.589813 181.009384,341.241943 176.345871,343.713654 
	C174.357040,344.767761 172.873322,345.742157 172.034302,348.093658 
	C170.196838,353.243530 165.924408,354.785461 160.772629,352.637695 
	C157.954956,351.463013 147.644775,353.960693 146.034698,356.215363 
	C144.879868,357.832520 145.855682,359.029053 146.865997,360.187988 
	C151.463455,365.461670 156.085968,370.713623 160.666214,376.002197 
	C161.940170,377.473145 163.337097,378.076782 165.403732,378.124268 
	C171.688370,378.268677 174.101440,381.253326 173.565842,387.809601 
	C173.466782,389.022308 173.353271,390.121216 174.208145,391.091248 
	C178.283249,395.715179 182.365524,400.332794 186.432312,404.964050 
	C187.507858,406.188843 188.686768,405.965851 190.056381,405.500092 
	C194.689346,403.924713 199.269547,404.065643 203.526245,406.619324 
	C205.755814,407.956909 207.489700,407.623352 209.400146,406.055817 
	C211.586487,404.261871 213.980713,402.724030 216.233322,401.007568 
	C220.888382,397.460510 220.766876,391.788391 215.932388,388.370575 
	C211.850906,385.485107 207.678406,382.728546 203.589844,379.852875 
	C200.446396,377.641937 197.617447,375.656372 193.148102,376.996429 
	C189.315918,378.145447 185.248093,374.231445 184.838516,370.190460 
	C184.468521,366.540009 187.565735,362.627136 191.395767,361.906281 
	C195.012878,361.225555 199.702560,363.908173 199.968445,367.801514 
	C200.245438,371.857758 202.563828,373.595306 205.398514,375.460907 
	C209.573349,378.208527 213.657074,381.094482 217.782364,383.917480 
	C218.607193,384.481934 219.579300,385.637695 220.254745,385.488098 
	C226.397324,384.127533 232.975204,387.594879 238.792877,384.105469 
	C242.488907,381.888641 245.730392,378.925232 249.253143,376.404816 
	C252.265671,374.249451 254.817429,372.229462 255.046616,367.827972 
	C255.253159,363.861237 259.847198,361.238464 263.556915,361.962921 
	C267.346497,362.702972 270.477997,366.701477 270.083344,370.296265 
	C269.644257,374.295624 265.640289,378.083008 261.671600,377.059235 
	C257.587341,376.005707 255.109207,377.613892 252.320892,379.867981 
	C248.566589,382.903046 244.612320,385.689941 240.767532,388.614471 
	C239.734222,389.400513 238.385605,390.101196 238.748596,391.742584 
	C239.102722,393.343842 240.441299,393.550812 241.829468,393.744781 
	C253.355606,395.355560 264.877655,396.995972 276.397736,398.649719 
	C278.619324,398.968597 280.092590,397.760468 281.733612,396.518585 
	C285.543213,393.635498 290.120605,394.275269 292.763885,397.830780 
	C295.152588,401.043854 294.545868,405.705109 291.421295,408.145996 
	C287.677155,411.070770 283.429413,410.766388 280.498199,406.711304 
	C278.601013,404.086731 276.386505,403.288330 273.415894,402.914764 
	C263.188416,401.628510 252.980255,400.175354 242.787430,398.635620 
	C240.085556,398.227509 238.035324,398.535034 236.175461,400.814270 
	C233.779602,403.750336 230.354507,405.084229 226.783844,403.669037 
	C223.094498,402.206696 220.478912,403.249512 217.787750,405.621826 
	C215.794312,407.379120 213.562775,408.868347 211.419922,410.453461 
	C209.718323,411.712128 209.377350,413.165558 210.064484,415.242004 
	C210.735504,417.269745 212.014420,417.630707 213.826324,417.717896 
	C221.481003,418.086151 229.133942,418.498505 236.783493,418.961395 
	C239.605225,419.132141 241.762650,418.526886 243.700394,416.071045 
	C246.760498,412.192871 250.942017,410.755096 255.704285,412.977570 
	C260.229492,415.089417 262.745911,418.734467 262.025940,423.786102 
	C261.628174,426.576904 262.666077,428.140900 264.611389,429.695740 
	C271.509979,435.209625 278.398865,440.737549 285.197327,446.373596 
	C287.184235,448.020813 288.892975,448.558441 291.490875,447.518829 
	C296.244659,445.616486 300.462982,447.143494 303.411835,451.163116 
	C306.263245,455.049927 306.111450,459.304840 303.337830,463.274780 
	C300.598419,467.195801 295.949585,468.525360 291.344940,466.741211 
	C286.543030,464.880676 284.188477,461.152588 284.830444,456.158936 
	C285.238373,452.985931 284.068176,451.210724 281.817963,449.441803 
	C275.006744,444.087677 268.284363,438.620605 261.521576,433.204803 
	C260.101440,432.067566 258.750122,430.643311 256.647339,431.613892 
	C254.410965,432.646179 254.194748,434.662720 254.413544,436.710999 
	C255.121689,443.340332 255.513916,449.980530 255.371399,456.647003 
	C255.328629,458.646729 256.563385,459.557251 258.143036,460.372498 
	C262.632385,462.689484 264.780121,466.446838 264.019226,471.438141 
	C263.229126,476.621185 259.755219,479.698730 253.920929,480.107849 
	C251.111328,480.304840 249.799561,481.601562 248.597641,483.776825 
	C244.811340,490.629486 240.902084,497.414124 237.084885,504.249878 
	C236.379791,505.512543 235.189056,506.831940 236.152359,508.386139 
	C237.202438,510.080292 238.884567,509.206055 240.261459,508.943146 
	C250.065811,507.071228 259.855713,505.123688 269.649048,503.194305 
	C270.464294,503.033691 271.265869,502.801544 272.082825,502.652100 
	C274.051575,502.291962 275.472839,503.112030 275.799805,505.031708 
	C276.165741,507.180237 274.466888,507.152374 272.908264,507.445404 
	C262.774384,509.350647 252.652863,511.324738 242.544266,513.360535 
	C235.559097,514.767334 231.104202,522.441711 233.729477,528.891907 
	C236.202209,534.967224 236.982315,541.734497 242.020569,546.805603 
	C244.622635,549.424622 243.334045,552.787292 240.659393,555.183228 
	C238.081085,557.492798 235.235123,557.772766 232.559937,555.416992 
	C229.749344,552.941895 228.363968,549.552856 231.130066,546.655029 
	C233.757950,543.902039 233.393799,541.593079 232.276474,538.625305 
	C230.524246,533.971130 228.990906,529.234497 226.869919,523.101624 
	C223.687851,532.255188 220.933701,540.148621 218.203049,548.050110 
	C217.332870,550.568115 216.647888,553.157043 215.656906,555.624634 
	C214.498581,558.508972 214.120361,561.090210 215.527359,564.198425 
	C217.528992,568.620300 214.874420,573.648926 210.213608,575.514221 
	C205.927322,577.229675 201.795151,575.332336 199.666458,570.671509 
	C197.823120,566.635498 199.370605,561.558838 204.233322,560.172119 
	C209.564575,558.651917 210.899017,555.000366 212.327377,550.697327 
	C215.370163,541.530579 218.503708,532.392151 221.759399,523.299194 
	C222.509247,521.204895 222.213333,519.643799 221.262558,517.689514 
	C218.562897,512.140320 221.441010,506.263824 227.586395,505.208954 
	C230.626373,504.687134 232.239273,503.289093 233.603928,500.773712 
	C237.082870,494.361176 240.747360,488.049347 244.904007,480.695099 
	C240.046310,483.183502 237.001938,486.204865 233.672989,488.825836 
	C227.390915,493.771912 221.094177,498.699402 214.792328,503.620300 
	C213.457794,504.662384 212.345078,505.651642 212.328873,507.649567 
	C212.235382,519.171387 209.192947,522.423218 197.781113,523.256042 
	C195.872986,527.640564 195.674850,532.523987 194.526047,537.169739 
	C194.225372,538.385620 194.706665,539.384399 195.297867,540.453674 
	C199.299026,547.690308 198.202820,552.435303 190.805725,556.420288 
	C187.607712,558.143127 186.354355,560.421631 185.356995,563.544312 
	C179.684631,581.304138 173.914612,599.033081 168.081589,616.740845 
	C167.094482,619.737549 166.879486,622.134094 168.982254,625.015198 
	C171.957123,629.091125 170.127289,634.269043 165.510330,636.834229 
	C161.725494,638.937073 156.752563,637.206848 154.559708,633.024048 
	C152.460373,629.019531 153.894409,623.938232 158.265152,622.062012 
	C161.257889,620.777283 162.609787,618.739807 163.511749,615.939880 
	C169.535278,597.240784 175.571838,578.545776 181.653900,559.865662 
	C182.272705,557.965149 182.131317,556.679626 180.677078,554.996277 
	C175.710907,549.247498 176.433853,543.493530 182.470367,538.661133 
	C183.721939,537.659241 184.599899,536.821533 184.447525,535.011169 
	C183.122253,519.266113 181.890915,503.513245 180.600525,487.765228 
	C180.551163,487.162964 180.185242,486.586639 180.008545,486.110596 
	C178.114716,485.749237 177.698349,487.016144 177.443573,488.076904 
	C175.840271,494.751740 170.921112,500.613159 172.617935,508.131836 
	C172.890335,509.338959 172.198074,510.837067 171.106735,511.705048 
	C164.430756,517.014709 164.414185,525.508606 161.116165,532.427856 
	C160.282364,534.177124 161.661072,535.178162 162.457687,536.398804 
	C166.048050,541.899963 164.988251,548.146729 159.964340,551.258667 
	C154.741394,554.493896 148.994644,552.862061 145.500366,547.151367 
	C143.217896,543.421204 133.430298,541.499451 129.988312,544.075806 
	C128.303253,545.337097 128.043839,547.048645 128.196808,548.970459 
	C129.146591,560.903015 130.120544,572.833923 130.981461,584.772888 
	C131.141342,586.990173 132.112457,588.292236 133.865128,589.610718 
	C138.012405,592.730652 138.606644,598.298157 135.486450,601.899048 
	C132.467224,605.383362 127.224419,605.850342 123.886208,602.932251 
	C120.042145,599.571960 119.871643,594.893005 123.734825,590.623657 
	C125.189270,589.016235 125.990463,587.470459 125.853287,585.306213 
	C125.073982,573.010498 124.330788,560.712341 123.629562,548.411926 
	C123.532448,546.708496 122.617622,545.710876 121.375992,544.761963 
	C119.014984,542.957520 118.075050,540.527466 119.019508,537.690857 
	C119.992928,534.767273 121.951500,532.879456 125.687889,533.074219 
M204.825439,466.668610 
	C213.312256,466.813568 221.787262,466.714172 230.279083,467.476990 
	C236.418945,468.028503 243.445679,469.698456 247.116791,461.945862 
	C247.363007,461.425873 248.142792,461.108490 248.731812,460.810211 
	C250.473221,459.928345 250.881348,458.446106 250.841522,456.647308 
	C250.723526,451.318054 250.840057,445.976715 250.517975,440.661102 
	C250.260239,436.407410 250.097809,431.950531 244.965652,430.008118 
	C243.896912,429.603638 242.977097,428.166077 242.492111,426.995972 
	C241.566040,424.761688 239.951752,424.276550 237.772614,424.132019 
	C230.308563,423.636871 222.852539,423.012848 215.398468,422.378845 
	C212.317093,422.116730 210.112289,422.670013 208.760269,426.059448 
	C207.288498,429.749146 204.116486,432.627258 200.222122,433.114716 
	C194.630966,433.814514 192.699615,437.026031 191.935089,441.909058 
	C191.628662,443.866180 190.941696,445.775818 190.309128,447.667358 
	C188.912354,451.843964 188.236877,455.645233 193.352478,458.038818 
	C194.530334,458.589966 195.501358,460.247559 195.935486,461.599030 
	C197.228577,465.624603 199.945343,467.045837 204.825439,466.668610 
M170.109512,423.517761 
	C172.526337,422.913208 174.938904,422.290985 177.361511,421.710541 
	C178.886688,421.345062 180.041809,420.741180 180.623764,419.057892 
	C183.916916,409.532227 183.953659,409.541595 177.283112,401.824005 
	C175.543640,399.811462 173.876694,397.724274 172.009460,395.836578 
	C168.160156,391.945099 162.020462,393.303009 157.914551,389.871918 
	C157.693207,389.686981 156.980377,390.072357 156.502899,390.214355 
	C147.356995,392.934143 139.290070,397.246643 133.700439,405.358093 
	C130.399307,410.148621 126.930779,414.823395 123.578026,419.578766 
	C119.310051,425.632233 115.083046,431.714600 109.918854,439.099457 
	C115.446075,437.787964 119.397430,436.724274 123.403122,435.937134 
	C127.053482,435.219849 129.366058,433.797058 130.674774,429.775330 
	C133.139130,422.202240 142.214294,419.247650 147.991714,424.480408 
	C152.203003,428.294739 155.814484,427.661072 160.196899,426.264465 
	C163.201523,425.306946 166.272583,424.557953 170.109512,423.517761 
M172.299850,482.105591 
	C166.964294,477.250092 164.136169,471.492645 166.691818,464.275238 
	C169.422455,456.563629 175.101761,452.629333 183.589325,452.672974 
	C185.235901,447.083099 186.935165,441.698761 188.390640,436.249298 
	C189.515350,432.038147 183.034317,425.320068 178.733261,426.284882 
	C173.708878,427.411926 168.786652,428.990204 163.769669,430.155640 
	C158.283066,431.430145 152.390137,431.918213 151.303345,439.255310 
	C151.178452,440.098419 150.210815,440.941498 149.443298,441.540222 
	C147.493240,443.061401 147.726624,444.763458 148.435944,446.847229 
	C154.009766,463.221558 159.479416,479.631378 165.035721,496.011688 
	C165.517517,497.432068 165.457733,499.355530 168.071732,499.981384 
	C169.256775,494.021729 173.575241,489.090515 172.299850,482.105591 
M192.091263,481.669830 
	C190.532623,482.621399 189.025681,483.675446 187.400543,484.495178 
	C185.832138,485.286224 185.275009,486.414764 185.413116,488.112335 
	C186.682144,503.709839 187.542603,519.345154 189.860352,534.904297 
	C190.863785,531.551819 191.451935,528.144287 192.278854,524.795715 
	C192.955627,522.055115 192.808456,519.660461 191.099976,517.237610 
	C187.906433,512.708618 188.418533,508.149597 191.689270,503.844971 
	C194.804565,499.744843 199.895920,497.993317 205.137573,500.212891 
	C208.541061,501.654114 210.639969,500.855286 213.173370,498.834869 
	C222.285934,491.567627 231.518082,484.450531 240.672821,477.235870 
	C241.915649,476.256470 243.615311,475.478271 243.341171,473.430481 
	C242.410675,472.013000 240.968826,472.316132 239.686630,472.271851 
	C227.872208,471.863892 216.051773,471.593048 204.244202,471.043854 
	C200.251129,470.858124 197.563751,471.752289 196.457947,476.013000 
	C195.920273,478.084778 194.290115,479.729523 192.091263,481.669830 
z"/>
<path fill="#000000" opacity="1.000000" stroke="none" 
	d="
M461.368347,427.298401 
	C476.352386,430.697571 486.110809,439.409668 490.347534,453.728729 
	C496.493652,474.501160 497.204132,495.131409 485.947418,514.576538 
	C476.362152,531.134460 458.413239,538.436340 438.176117,534.794678 
	C419.596161,531.451233 408.369751,519.661804 404.538116,500.048950 
	C402.138641,487.766724 402.314819,475.584137 405.000916,463.447632 
	C410.097717,440.418640 428.514313,421.011139 461.368347,427.298401 
M453.912872,524.643127 
	C465.560242,522.509583 473.474060,515.548096 477.859314,504.902100 
	C484.678589,488.347076 484.723328,471.453644 478.087341,454.843414 
	C474.270203,445.288910 466.929047,439.545319 456.659576,437.250488 
	C438.525635,433.198181 423.447998,443.858063 418.072510,460.027954 
	C413.273712,474.463013 413.053345,489.206848 417.757446,503.670624 
	C421.399353,514.868530 428.928741,522.541260 441.078918,524.372681 
	C444.989044,524.962097 449.040405,524.614502 453.912872,524.643127 
z"/>
<path fill="#000000" opacity="1.000000" stroke="none" 
	d="
M801.382324,494.702423 
	C807.577637,507.938019 813.627136,520.828979 819.689880,533.748108 
	C811.635681,536.939819 807.987854,535.635193 804.754700,528.886230 
	C799.216248,517.324951 793.563538,505.816162 788.215210,494.167572 
	C786.712463,490.894623 784.789124,489.755371 781.276306,490.066681 
	C777.141235,490.433197 772.947632,490.452759 768.797668,490.249054 
	C764.753601,490.050568 763.148132,491.454620 763.226685,495.674469 
	C763.437500,506.995972 763.103882,518.328613 763.373962,529.647583 
	C763.484436,534.276794 761.519043,535.217041 757.422607,535.238525 
	C753.205261,535.260681 751.544067,534.036011 751.564697,529.537109 
	C751.713745,497.060120 751.686829,464.581879 751.561951,432.104645 
	C751.546570,428.100525 752.660339,426.390167 756.906006,426.544128 
	C764.558289,426.821533 772.231262,426.498413 779.886353,426.731049 
	C806.142578,427.529053 816.025818,441.028198 810.616638,468.050934 
	C809.481567,473.721710 806.939941,479.116119 802.094666,482.331207 
	C797.295349,485.515808 797.719604,488.603882 800.343567,492.571686 
	C800.708069,493.122864 800.942078,493.760315 801.382324,494.702423 
M763.303223,448.539703 
	C763.299194,455.034302 763.158569,461.532288 763.318970,468.022797 
	C763.676208,482.475433 760.094360,480.933441 776.928223,480.465546 
	C784.781250,480.247284 792.600037,478.415100 797.100281,470.625031 
	C805.897156,455.397339 798.360840,439.180267 781.234985,436.573212 
	C779.112244,436.250031 776.917603,436.368469 774.755554,436.338623 
	C761.180847,436.151215 763.493713,436.583954 763.303223,448.539703 
z"/>
<path fill="#000000" opacity="1.000000" stroke="none" 
	d="
M846.785767,525.648560 
	C846.071716,527.578918 845.527161,529.152466 844.918579,530.700928 
	C843.339966,534.717346 838.252258,536.695923 834.404663,534.830933 
	C831.798584,533.567749 833.252319,531.729065 833.817688,530.153564 
	C841.236023,509.479919 848.693787,488.820404 856.156067,468.162567 
	C860.621460,455.800934 865.294800,443.509918 869.489746,431.057434 
	C870.903198,426.861664 873.556396,426.649963 877.109009,426.535156 
	C880.847107,426.414459 882.294250,428.220459 883.482727,431.427460 
	C895.449829,463.720337 907.546753,495.965027 919.609436,528.222473 
	C920.299133,530.066650 921.135986,531.877502 920.997498,533.844360 
	C912.959473,537.091370 909.643555,535.642944 906.937012,527.960144 
	C904.946655,522.310303 902.793274,516.715698 900.914124,511.029755 
	C899.918823,508.018066 898.130676,506.922424 894.997009,506.952301 
	C882.510193,507.071411 870.021057,507.058380 857.533813,506.963501 
	C854.431824,506.939941 852.584534,507.978577 851.666138,511.077545 
	C850.248901,515.860046 848.521851,520.550659 846.785767,525.648560 
M891.256042,484.155884 
	C886.339111,470.478668 881.422119,456.801483 876.292847,442.533722 
	C875.393433,443.737335 874.989929,444.077362 874.840393,444.506042 
	C869.144775,460.834839 863.482849,477.175415 857.788086,493.504547 
	C856.665039,496.724762 858.047974,497.725952 861.098511,497.704590 
	C869.252441,497.647491 877.407959,497.760864 885.561035,497.658569 
	C888.636353,497.619995 891.825623,498.316162 895.003052,496.851837 
	C894.942749,492.443420 892.655273,488.823578 891.256042,484.155884 
z"/>
<path fill="#000000" opacity="1.000000" stroke="none" 
	d="
M573.936340,471.581421 
	C569.201050,486.698486 557.888611,492.006531 543.753540,493.198608 
	C540.278320,493.491699 536.736511,493.583405 533.271240,493.266113 
	C528.291016,492.810059 526.990723,494.997070 527.116760,499.642731 
	C527.387695,509.628418 527.017517,519.631531 527.287903,529.617249 
	C527.413879,534.268799 525.308472,535.212097 521.257629,535.179016 
	C517.347656,535.146973 514.958435,534.465393 514.974792,529.755920 
	C515.088074,497.112549 515.070312,464.468567 514.999756,431.824982 
	C514.991516,428.022217 516.308777,426.412567 520.264465,426.590210 
	C530.234009,427.037811 540.240540,426.031128 550.195557,427.422363 
	C567.789917,429.881226 575.320557,438.126373 575.975952,455.899170 
	C576.167297,461.088623 575.428589,466.191345 573.936340,471.581421 
M527.602905,438.372070 
	C527.482788,452.325806 527.374268,466.279633 527.231995,480.233154 
	C527.205444,482.837982 528.554199,483.677124 530.973877,483.697052 
	C536.131409,483.739594 541.263672,483.696625 546.365234,482.735992 
	C554.354736,481.231537 560.553894,477.235962 562.554504,469.124756 
	C564.808472,459.986664 565.638916,450.685242 559.283691,442.450958 
	C558.983276,442.061676 558.613098,441.676361 558.191284,441.437988 
	C548.671448,436.057190 538.632263,434.772766 527.602905,438.372070 
z"/>
<path fill="#000000" opacity="1.000000" stroke="none" 
	d="
M694.414429,437.308655 
	C686.270996,437.374664 686.277100,437.374664 686.283813,444.975922 
	C686.291504,453.637817 686.424316,462.302887 686.223145,470.960083 
	C686.136719,474.678741 687.498108,475.949341 691.149048,475.894226 
	C701.474365,475.738251 711.803894,475.887878 722.130859,475.804016 
	C725.423523,475.777313 727.685303,476.367676 727.303162,480.453583 
	C726.982300,483.884216 726.575684,486.542206 721.968079,486.430878 
	C711.813110,486.185547 701.645569,486.489105 691.487915,486.305664 
	C687.704712,486.237366 686.088318,487.264038 686.192932,491.360443 
	C686.439453,501.015503 686.392517,510.683441 686.207092,520.341187 
	C686.142395,523.710266 687.447571,524.645020 690.588196,524.621216 
	C703.413452,524.523926 716.240112,524.599487 729.066223,524.599976 
	C731.844482,524.600037 734.528015,524.454590 734.278625,528.615356 
	C734.066467,532.155518 734.074463,535.236572 729.074585,535.190552 
	C712.418579,535.037231 695.760254,535.100037 679.103027,535.154846 
	C675.961426,535.165161 674.640808,533.946045 674.646729,530.709717 
	C674.708130,497.394836 674.703552,464.079773 674.649170,430.764893 
	C674.644287,427.782501 675.785278,426.609802 678.768616,426.603363 
	C695.088928,426.568146 711.409119,426.432587 727.729187,426.312653 
	C730.601624,426.291565 731.583557,427.844482 731.261292,430.455292 
	C730.894470,433.427826 731.767578,437.279327 726.842834,437.294128 
	C717.015015,437.323669 707.187134,437.319550 697.359253,437.327759 
	C696.526306,437.328461 695.693420,437.317383 694.414429,437.308655 
z"/>
<path fill="#000000" opacity="1.000000" stroke="none" 
	d="
M608.323730,515.872559 
	C608.333496,517.684631 608.435852,519.024231 608.337708,520.348938 
	C608.089539,523.695557 609.809692,524.679688 612.881592,524.649658 
	C624.709900,524.534241 636.539368,524.540222 648.368408,524.495361 
	C649.366821,524.491577 650.380005,524.325317 651.360474,524.445801 
	C653.803650,524.746033 657.091248,523.827393 656.510498,528.389404 
	C656.066223,531.879700 656.621765,535.329163 651.111816,535.237366 
	C634.788025,534.965393 618.456482,535.044006 602.129333,535.172668 
	C598.050781,535.204773 596.608093,533.771240 596.623352,529.627625 
	C596.743713,496.971710 596.774109,464.314606 596.585205,431.659302 
	C596.555603,426.543976 599.335693,426.703278 602.906494,426.537933 
	C606.951599,426.350586 608.445007,427.682953 608.420593,431.920044 
	C608.260132,459.743744 608.330139,487.568726 608.323730,515.872559 
z"/>
<path fill="#000000" opacity="1.000000" stroke="none" 
	d="
M664.353760,570.789551 
	C663.209473,572.905457 663.615295,574.828674 664.034790,576.561768 
	C661.363342,579.018494 658.705383,570.531372 656.787415,577.722656 
	C654.158752,572.998901 654.299988,567.490662 656.788269,566.950378 
	C659.929077,566.268311 663.651611,565.460327 664.353760,570.789551 
z"/>
<path fill="#000000" opacity="1.000000" stroke="none" 
	d="
M626.706299,567.820007 
	C627.071838,571.066956 627.591797,573.999023 626.320129,576.697266 
	C623.479126,577.036743 624.588440,574.125671 623.175903,573.474182 
	C620.834839,574.178589 617.630981,573.249695 617.729736,578.944641 
	C614.477600,573.702515 615.552917,570.432068 616.318604,567.340637 
	C618.828735,566.237976 619.447327,568.593750 621.111694,569.122009 
	C623.006775,569.315796 623.931152,565.498962 626.706299,567.820007 
z"/>
<path fill="#000000" opacity="1.000000" stroke="none" 
	d="
M715.454468,577.017090 
	C714.040649,576.375916 712.940063,575.675354 711.695129,574.882874 
	C709.945129,574.480286 710.520325,577.717773 708.334351,577.092468 
	C708.155518,576.889343 707.581482,576.539856 707.573303,576.177612 
	C707.528503,574.196655 707.713318,572.209717 707.650757,570.230164 
	C707.514465,565.920471 710.670044,566.510864 713.190796,566.653625 
	C716.045898,566.815369 717.754700,568.791992 716.421692,571.380798 
	C715.392700,573.378967 716.898987,575.250366 715.454468,577.017090 
z"/>
<path fill="#000000" opacity="1.000000" stroke="none" 
	d="
M761.673340,574.702759 
	C760.282776,575.471741 760.018433,577.349548 757.919495,576.697021 
	C756.774536,573.504578 755.989990,569.939270 758.602600,567.180481 
	C759.880981,565.830627 762.669739,565.790100 764.701660,567.031189 
	C766.043823,567.850952 766.848328,569.163391 766.611633,570.809387 
	C766.236145,573.420410 764.309753,574.238159 761.673340,574.702759 
z"/>
<path fill="#000000" opacity="1.000000" stroke="none" 
	d="
M798.531494,566.719116 
	C801.523010,567.810120 802.797424,569.625305 801.367310,572.218262 
	C800.461121,573.861206 802.045959,575.444885 800.893982,577.198303 
	C798.586365,576.381714 796.253845,573.851746 793.917664,577.154236 
	C791.277100,569.536194 792.399536,566.959106 798.531494,566.719116 
z"/>
<path fill="#000000" opacity="1.000000" stroke="none" 
	d="
M505.700806,575.718933 
	C503.356659,573.713928 503.164520,577.458923 501.064270,576.757935 
	C499.495331,573.895996 500.055176,570.484863 501.162170,567.668030 
	C502.261536,564.870605 508.875763,566.876709 509.244171,570.047058 
	C509.504120,572.283936 507.439026,574.400940 509.352692,576.358704 
	C507.543488,577.735840 506.803253,576.572693 505.700806,575.718933 
z"/>
<path fill="#000000" opacity="1.000000" stroke="none" 
	d="
M746.061646,567.324158 
	C749.294495,570.143372 749.227600,573.139893 746.935608,575.883057 
	C745.007446,578.190735 742.156006,578.348999 739.720459,576.765198 
	C737.251282,575.159607 736.477417,572.533997 737.704407,569.763245 
	C739.345886,566.056335 742.473083,566.245178 746.061646,567.324158 
M740.514832,571.014282 
	C740.164490,573.216003 740.843445,574.817993 743.315430,574.503357 
	C745.054260,574.281982 745.945435,572.720154 745.232849,571.135864 
	C744.287720,569.034546 742.608948,568.779419 740.514832,571.014282 
z"/>
<path fill="#000000" opacity="1.000000" stroke="none" 
	d="
M697.741577,571.525391 
	C697.599060,573.222290 696.126465,573.183472 695.265991,573.758667 
	C695.715454,575.304016 698.099854,574.464294 697.924133,576.742310 
	C696.139099,577.907166 693.757507,577.864929 691.994690,577.096680 
	C688.289795,575.482056 689.705383,571.782776 690.253357,569.228210 
	C691.287842,564.405945 695.313599,567.566956 697.814575,566.374207 
	C698.743408,569.157837 696.659851,568.876160 695.796143,569.700928 
	C696.433105,570.221619 697.056885,570.731567 697.741577,571.525391 
z"/>
<path fill="#000000" opacity="1.000000" stroke="none" 
	d="
M897.932739,567.802368 
	C900.326172,566.229675 903.911316,565.744568 904.271790,567.617920 
	C904.766479,570.188904 906.543884,572.936951 905.471313,575.627991 
	C904.384583,578.354553 900.103271,577.982605 897.451172,575.108093 
	C897.692566,574.029907 898.405823,573.942200 899.316650,574.193542 
	C899.913025,574.358093 900.525757,574.463196 901.783142,574.736755 
	C899.954651,572.310303 895.663940,571.947754 897.932739,567.802368 
z"/>
<path fill="#000000" opacity="1.000000" stroke="none" 
	d="
M882.031006,568.339722 
	C884.878845,571.790771 884.989014,567.241638 887.047058,567.144104 
	C888.962036,570.306396 888.571411,573.541199 887.403381,576.803040 
	C884.764893,577.087708 884.335815,574.577576 882.554260,573.936401 
	C880.997131,574.221130 881.947571,576.963196 879.590576,576.855896 
	C877.917603,574.268250 878.550476,571.274658 878.907532,568.487549 
	C879.189392,566.287903 880.671387,567.202332 882.031006,568.339722 
z"/>
<path fill="#000000" opacity="1.000000" stroke="none" 
	d="
M858.657227,574.162476 
	C857.804932,570.718018 858.415527,568.063782 861.656006,566.985291 
	C864.050476,566.188538 866.644897,566.203979 868.349121,568.635620 
	C870.217529,571.301575 870.198853,574.171204 867.574524,576.113403 
	C864.370056,578.485046 861.116333,578.330505 858.657227,574.162476 
M861.411560,572.356018 
	C862.210876,574.855713 863.763123,575.503418 865.812012,573.821594 
	C867.005310,572.842163 866.849854,571.317139 865.754395,570.339355 
	C863.733032,568.535217 862.212280,569.126953 861.411560,572.356018 
z"/>
<path fill="#000000" opacity="1.000000" stroke="none" 
	d="
M639.792664,567.646362 
	C646.275879,567.659241 644.219177,573.414001 646.467651,576.532898 
	C642.824219,576.177612 639.531006,575.638184 635.827026,577.409973 
	C635.931702,573.305237 638.172485,570.776001 639.792664,567.646362 
z"/>
<path fill="#000000" opacity="1.000000" stroke="none" 
	d="
M782.543579,572.746277 
	C781.400452,573.247437 780.486816,573.533752 779.497253,573.843872 
	C780.257080,575.532715 782.734802,574.076599 783.065735,576.548218 
	C780.832581,577.941162 777.752136,578.289307 776.148254,576.452698 
	C774.166138,574.183289 774.684814,570.391113 776.075439,567.966492 
	C777.517090,565.452881 780.669495,566.470703 783.169739,566.979065 
	C783.666504,569.772644 781.174805,568.791809 780.271545,569.750244 
	C780.818665,570.930969 783.606750,570.147339 782.543579,572.746277 
z"/>
<path fill="#000000" opacity="1.000000" stroke="none" 
	d="
M551.761597,567.274963 
	C553.244873,566.930725 554.406738,566.580872 555.507080,566.719604 
	C558.835510,567.139038 560.505859,569.283691 560.193359,572.504333 
	C559.883484,575.698975 557.910889,577.442261 554.520874,577.401062 
	C551.024780,577.358582 549.479065,575.389648 549.225891,572.180054 
	C549.074890,570.266724 549.783630,568.635498 551.761597,567.274963 
M557.217346,572.964661 
	C557.801697,570.289368 556.495361,569.155457 554.032288,569.555359 
	C552.537903,569.797974 551.914124,571.256897 552.411011,572.638489 
	C553.326477,575.184021 554.954651,575.387207 557.217346,572.964661 
z"/>
<path fill="#000000" opacity="1.000000" stroke="none" 
	d="
M519.810791,576.944458 
	C518.372498,574.849304 520.606995,567.868591 522.635864,567.123413 
	C523.728149,566.722229 524.656982,567.099243 525.138245,568.074463 
	C526.483826,570.801086 528.343018,573.354492 528.637390,577.028503 
	C525.562744,576.471313 522.783386,574.112183 519.810791,576.944458 
z"/>
<path fill="#000000" opacity="1.000000" stroke="none" 
	d="
M815.896240,567.020996 
	C819.103943,569.702881 820.512207,572.999939 821.193176,577.411621 
	C817.659180,575.953735 814.611633,574.630859 810.675415,577.873047 
	C811.610046,572.977356 812.429260,569.517883 815.896240,567.020996 
z"/>
<path fill="#000000" opacity="1.000000" stroke="none" 
	d="
M488.128265,569.350586 
	C487.390472,571.650513 490.464417,569.884460 490.410553,571.657104 
	C490.316742,573.613220 488.359222,572.892578 487.396973,573.748413 
	C487.569641,575.685547 490.424286,574.116211 490.374847,576.594421 
	C488.292297,577.889282 485.371857,578.264160 483.651276,576.346008 
	C481.756958,574.234009 482.136414,570.701660 483.337006,568.324280 
	C484.920959,565.187744 488.054352,566.775452 490.632233,567.057373 
	C490.854370,569.204407 489.399597,568.986328 488.128265,569.350586 
z"/>
<path fill="#000000" opacity="1.000000" stroke="none" 
	d="
M599.484802,568.114685 
	C601.567688,566.482361 603.340698,566.482422 605.251587,568.225647 
	C604.484863,570.099182 602.343689,567.674988 601.525879,569.678040 
	C603.181335,571.362610 607.348022,571.098511 606.789368,574.850159 
	C606.467346,577.012634 604.465576,577.431396 602.577759,577.576355 
	C600.166504,577.761536 598.007812,577.489929 597.420105,574.713745 
	C599.294739,572.406067 600.987488,575.403015 602.815186,574.210449 
	C601.574890,572.294678 596.688660,572.435547 599.484802,568.114685 
z"/>
<path fill="#000000" opacity="1.000000" stroke="none" 
	d="
M459.236755,566.675232 
	C460.971527,568.534363 460.971527,568.534363 458.253418,569.856201 
	C458.890259,570.822754 460.683289,570.201660 460.885986,571.765442 
	C460.723022,573.858276 458.375854,572.864075 457.503479,573.986328 
	C458.342682,575.471802 460.703003,574.174316 461.131195,576.604736 
	C458.913727,577.804260 456.176971,578.145325 454.524811,576.384338 
	C452.661072,574.397705 453.466644,571.270142 453.921295,568.707031 
	C454.420532,565.892700 457.018982,566.929626 459.236755,566.675232 
z"/>
<path fill="#000000" opacity="1.000000" stroke="none" 
	d="
M443.281555,567.495178 
	C444.691925,570.679382 444.438232,573.618774 443.365051,577.647888 
	C440.743134,573.427734 438.414276,570.876709 436.365112,577.911011 
	C434.025116,573.695618 434.523041,570.604004 435.632690,566.384888 
	C438.196320,571.268555 440.605499,571.468811 443.281555,567.495178 
z"/>
<path fill="#000000" opacity="1.000000" stroke="none" 
	d="
M568.781860,571.018738 
	C569.260254,564.641602 573.238770,567.001038 576.382935,567.053223 
	C576.676880,569.768311 574.158752,568.690552 573.351746,569.847290 
	C573.675171,571.391907 575.956421,570.366333 576.315369,572.425903 
	C574.072144,573.339172 571.715698,574.519531 570.535278,577.079346 
	C568.077148,575.478455 569.032898,573.303772 568.781860,571.018738 
z"/>
<path fill="#000000" opacity="1.000000" stroke="none" 
	d="
M831.944092,572.333740 
	C832.136902,570.097717 830.094421,569.321899 829.776672,567.377686 
	C832.239014,566.167053 834.689270,566.550354 837.958435,567.219299 
	C834.562988,569.887146 835.508240,573.809326 833.958557,576.870850 
	C831.457947,576.089600 832.215942,574.189209 831.944092,572.333740 
z"/>
<path fill="#000000" opacity="1.000000" stroke="none" 
	d="
M678.313965,574.676453 
	C678.201233,576.282898 678.031738,577.450745 676.022461,577.039124 
	C674.774658,574.151367 676.917297,569.931824 672.162476,567.814148 
	C675.653687,566.083252 678.350525,566.648315 681.917725,566.845520 
	C679.902161,569.640747 677.557312,571.352112 678.313965,574.676453 
z"/>
<path fill="#000000" opacity="1.000000" stroke="none" 
	d="
M419.101624,569.478760 
	C417.983734,568.275818 417.123901,567.161011 419.165527,566.830261 
	C421.079803,566.520203 423.095276,566.315491 425.580322,567.426575 
	C422.047028,569.714661 422.503174,573.398621 421.895081,577.384033 
	C418.963898,574.974487 420.818298,571.805237 419.101624,569.478760 
z"/>
<path fill="#000000" opacity="1.000000" stroke="none" 
	d="
M846.655273,572.007812 
	C846.834290,570.154053 846.288452,568.545898 848.141541,567.173950 
	C850.098877,570.384094 849.633301,573.432312 848.537964,576.719055 
	C845.999756,575.849548 846.937805,573.909485 846.655273,572.007812 
z"/>
</svg>