<svg xmlns="http://www.w3.org/2000/svg" xmlns:xlink="http://www.w3.org/1999/xlink" width="500" zoomAndPan="magnify" viewBox="0 0 375 374.999991" height="500" preserveAspectRatio="xMidYMid meet" version="1.0"><defs><g/><clipPath id="f6104db094"><path d="M 0.679688 1 L 4 1 L 4 5 L 0.679688 5 Z M 0.679688 1 " clip-rule="nonzero"/></clipPath><clipPath id="0ce8595735"><rect x="0" width="184" y="0" height="7"/></clipPath><clipPath id="f5428323ab"><path d="M 22.492188 103 L 134 103 L 134 246.457031 L 22.492188 246.457031 Z M 22.492188 103 " clip-rule="nonzero"/></clipPath><clipPath id="c0e96f4253"><path d="M 22.734375 103.128906 L 133.316406 103.128906 L 133.316406 246.457031 L 22.734375 246.457031 Z M 22.734375 103.128906 " clip-rule="nonzero"/></clipPath><clipPath id="19b59efffe"><path d="M 63.691406 189.101562 L 65.078125 182.421875 C 64.640625 182.070312 64.289062 181.648438 64.019531 181.15625 C 63.753906 180.660156 63.597656 180.132812 63.546875 179.574219 C 63.5 179.015625 63.5625 178.46875 63.738281 177.933594 C 63.914062 177.402344 64.1875 176.921875 64.558594 176.503906 C 64.929688 176.082031 65.371094 175.75 65.878906 175.511719 C 66.386719 175.273438 66.921875 175.140625 67.484375 175.121094 C 68.042969 175.101562 68.585938 175.195312 69.109375 175.398438 C 69.632812 175.601562 70.097656 175.898438 70.496094 176.292969 L 83.824219 165.8125 C 83.652344 165.492188 83.53125 165.152344 83.464844 164.796875 L 66.285156 164.257812 C 66.199219 165.570312 65.71875 166.714844 64.835938 167.691406 C 63.953125 168.671875 62.863281 169.265625 61.5625 169.484375 L 63.125 188.988281 C 63.316406 189.007812 63.503906 189.046875 63.683594 189.101562 M 64.917969 150.71875 C 65.175781 150.757812 65.4375 150.777344 65.703125 150.777344 C 66.96875 150.777344 68.089844 150.371094 69.058594 149.554688 C 70.03125 148.742188 70.625 147.710938 70.847656 146.460938 L 82.644531 147.136719 C 82.738281 147.953125 83.078125 148.652344 83.65625 149.238281 C 84.234375 149.820312 84.929688 150.164062 85.746094 150.269531 L 86.203125 160.625 C 85.484375 160.785156 84.875 161.136719 84.367188 161.671875 C 83.863281 162.210938 83.554688 162.84375 83.441406 163.570312 L 66.230469 163.03125 C 65.894531 160.910156 64.726562 159.449219 62.730469 158.65625 Z M 60.84375 147.480469 C 61.394531 148.855469 62.351562 149.824219 63.71875 150.390625 C 62.875 153.386719 62.273438 155.429688 61.402344 158.300781 C 61.148438 158.269531 62.292969 158.570312 60.632812 158.25 C 56.65625 157.472656 51.691406 164.835938 57.984375 168.90625 C 57.300781 170.894531 56.34375 173.757812 55.582031 175.820312 C 55.363281 175.75 55.140625 175.714844 54.910156 175.71875 L 54.839844 175.71875 C 52.480469 168.492188 50.144531 161.496094 47.65625 154.363281 C 49.070312 153.605469 49.773438 152.425781 49.773438 150.824219 C 49.773438 150.691406 49.765625 150.542969 49.753906 150.410156 Z M 52.472656 134.335938 C 52.777344 135.03125 53.285156 135.507812 54.003906 135.757812 C 54.71875 136.007812 55.414062 135.957031 56.085938 135.601562 L 61.808594 142.074219 C 60.730469 143.277344 60.304688 144.679688 60.53125 146.28125 L 49.445312 149.214844 C 49.0625 148.339844 48.449219 147.6875 47.605469 147.25 C 46.757812 146.8125 45.871094 146.691406 44.9375 146.886719 C 44.007812 147.082031 43.242188 147.550781 42.640625 148.289062 C 42.042969 149.027344 41.742188 149.871094 41.742188 150.824219 C 41.742188 150.964844 41.75 151.101562 41.765625 151.242188 L 34.5 153.164062 C 34.394531 152.960938 34.265625 152.777344 34.113281 152.609375 L 44.71875 137.660156 C 44.882812 137.707031 45.046875 137.726562 45.21875 137.726562 C 45.683594 137.726562 46.089844 137.574219 46.4375 137.265625 C 46.785156 136.957031 46.988281 136.570312 47.042969 136.109375 Z M 64.542969 124.769531 C 64.113281 124.769531 63.707031 124.871094 63.328125 125.070312 C 62.945312 125.269531 62.632812 125.550781 62.390625 125.902344 C 62.148438 126.257812 62 126.648438 61.949219 127.078125 C 61.898438 127.503906 61.953125 127.917969 62.105469 128.320312 C 62.261719 128.722656 62.5 129.066406 62.824219 129.347656 C 63.148438 129.632812 63.519531 129.824219 63.9375 129.925781 C 64.355469 130.023438 64.773438 130.019531 65.191406 129.914062 C 65.609375 129.808594 65.976562 129.609375 66.296875 129.324219 L 74.792969 135.105469 C 74.371094 136.070312 74.390625 137.023438 74.851562 137.964844 L 69.5 141.964844 C 68.613281 141.03125 67.53125 140.5 66.25 140.367188 C 64.96875 140.234375 63.800781 140.535156 62.742188 141.265625 L 57.015625 134.792969 C 57.363281 134.300781 57.519531 133.75 57.484375 133.148438 C 57.449219 132.546875 57.234375 132.019531 56.835938 131.566406 C 56.4375 131.117188 55.9375 130.835938 55.347656 130.726562 C 54.753906 130.617188 54.191406 130.707031 53.65625 130.988281 L 46.957031 123.402344 C 46.996094 123.25 47.015625 123.09375 47.015625 122.9375 C 47.015625 122.734375 46.980469 122.535156 46.914062 122.34375 L 52.179688 120.214844 C 52.921875 121.242188 53.894531 121.5625 55.101562 121.175781 C 56.308594 120.785156 56.914062 119.957031 56.914062 118.691406 C 56.914062 118.5625 56.90625 118.4375 56.886719 118.308594 L 62.011719 116.238281 C 62.410156 116.6875 62.910156 116.890625 63.507812 116.851562 C 64.109375 116.8125 64.578125 116.542969 64.914062 116.046875 L 72.523438 118.007812 C 72.523438 118.042969 72.523438 118.074219 72.523438 118.109375 C 72.523438 118.578125 72.632812 119.023438 72.851562 119.4375 C 73.070312 119.855469 73.375 120.195312 73.761719 120.460938 C 74.148438 120.730469 74.578125 120.890625 75.042969 120.945312 C 75.511719 121 75.964844 120.941406 76.402344 120.773438 C 76.84375 120.605469 77.21875 120.34375 77.527344 119.988281 C 77.835938 119.636719 78.046875 119.230469 78.15625 118.773438 C 78.265625 118.316406 78.261719 117.859375 78.144531 117.402344 C 78.03125 116.945312 77.8125 116.542969 77.5 116.195312 C 77.183594 115.84375 76.804688 115.589844 76.363281 115.425781 C 75.921875 115.265625 75.46875 115.214844 75 115.277344 C 74.535156 115.339844 74.109375 115.507812 73.726562 115.777344 C 73.34375 116.050781 73.042969 116.398438 72.832031 116.816406 L 65.222656 114.851562 C 65.179688 114.359375 64.972656 113.953125 64.601562 113.625 C 64.230469 113.300781 63.800781 113.148438 63.308594 113.171875 C 62.816406 113.195312 62.398438 113.382812 62.058594 113.742188 C 61.71875 114.097656 61.546875 114.523438 61.550781 115.015625 L 61.550781 115.09375 L 56.425781 117.164062 C 55.683594 116.132812 54.710938 115.8125 53.503906 116.203125 C 52.292969 116.589844 51.691406 117.421875 51.691406 118.691406 C 51.691406 118.816406 51.699219 118.941406 51.71875 119.066406 L 46.089844 121.332031 C 45.695312 121.105469 45.273438 121.03125 44.824219 121.117188 C 44.375 121.203125 44.007812 121.425781 43.726562 121.785156 C 43.441406 122.144531 43.308594 122.550781 43.328125 123.007812 C 43.351562 123.464844 43.515625 123.855469 43.828125 124.191406 C 44.144531 124.523438 44.527344 124.710938 44.980469 124.757812 C 45.4375 124.804688 45.851562 124.695312 46.226562 124.433594 L 52.722656 131.792969 C 52.515625 132.089844 52.378906 132.414062 52.308594 132.765625 L 46.566406 134.648438 C 46.183594 134.230469 45.710938 134.03125 45.144531 134.050781 C 44.578125 134.070312 44.117188 134.300781 43.769531 134.746094 L 39.453125 133.269531 C 39.453125 133.179688 39.464844 133.082031 39.464844 132.988281 C 39.464844 132.539062 39.363281 132.113281 39.15625 131.714844 C 38.953125 131.320312 38.667969 130.988281 38.300781 130.730469 C 37.933594 130.472656 37.53125 130.308594 37.085938 130.246094 C 36.640625 130.1875 36.210938 130.230469 35.785156 130.378906 C 35.363281 130.527344 35 130.765625 34.691406 131.089844 C 34.382812 131.417969 34.167969 131.796875 34.046875 132.226562 C 33.921875 132.65625 33.90625 133.09375 33.996094 133.53125 C 34.082031 133.972656 34.269531 134.367188 34.550781 134.714844 C 34.832031 135.066406 35.175781 135.332031 35.585938 135.511719 C 35.996094 135.691406 36.425781 135.769531 36.871094 135.742188 C 37.320312 135.714844 37.734375 135.585938 38.121094 135.355469 C 38.503906 135.125 38.816406 134.820312 39.050781 134.4375 L 43.367188 135.914062 C 43.367188 136.019531 43.378906 136.128906 43.398438 136.234375 L 30.691406 143.667969 C 30.378906 143.335938 30.007812 143.09375 29.578125 142.945312 C 29.148438 142.796875 28.707031 142.757812 28.257812 142.828125 C 27.804688 142.898438 27.398438 143.070312 27.03125 143.34375 C 26.667969 143.617188 26.386719 143.957031 26.191406 144.371094 C 25.996094 144.78125 25.90625 145.214844 25.925781 145.671875 C 25.945312 146.125 26.070312 146.550781 26.300781 146.945312 C 26.53125 147.339844 26.839844 147.65625 27.226562 147.894531 C 27.613281 148.136719 28.03125 148.273438 28.488281 148.304688 C 28.941406 148.335938 29.378906 148.261719 29.792969 148.078125 C 30.210938 147.894531 30.5625 147.621094 30.84375 147.265625 C 31.128906 146.90625 31.308594 146.503906 31.394531 146.058594 C 31.476562 145.609375 31.449219 145.167969 31.3125 144.730469 L 43.0625 137.855469 L 33.121094 151.902344 C 32.753906 151.75 32.371094 151.679688 31.972656 151.695312 C 31.578125 151.707031 31.199219 151.800781 30.84375 151.980469 C 30.488281 152.15625 30.183594 152.398438 29.933594 152.703125 C 29.679688 153.011719 29.503906 153.355469 29.402344 153.738281 C 29.300781 154.125 29.28125 154.511719 29.347656 154.902344 C 29.410156 155.296875 29.554688 155.65625 29.773438 155.984375 C 29.996094 156.316406 30.273438 156.585938 30.613281 156.796875 C 30.949219 157.003906 31.316406 157.136719 31.707031 157.1875 C 32.101562 157.238281 32.488281 157.207031 32.871094 157.09375 C 33.25 156.976562 33.589844 156.789062 33.886719 156.527344 C 34.1875 156.265625 34.417969 155.953125 34.582031 155.589844 C 34.746094 155.230469 34.828125 154.847656 34.828125 154.453125 C 34.828125 154.421875 34.828125 154.390625 34.828125 154.363281 L 42.089844 152.441406 C 42.542969 153.46875 43.292969 154.183594 44.339844 154.585938 L 41.292969 168.90625 C 40.582031 168.914062 39.960938 169.148438 39.429688 169.621094 L 35.070312 166.429688 C 35.261719 165.996094 35.339844 165.542969 35.304688 165.070312 C 35.269531 164.601562 35.125 164.164062 34.875 163.761719 C 34.625 163.363281 34.292969 163.042969 33.882812 162.804688 C 33.472656 162.570312 33.03125 162.445312 32.558594 162.425781 C 32.085938 162.410156 31.636719 162.503906 31.210938 162.710938 C 30.785156 162.917969 30.429688 163.210938 30.152344 163.59375 C 29.871094 163.976562 29.699219 164.402344 29.628906 164.871094 C 29.5625 165.335938 29.605469 165.792969 29.765625 166.242188 C 29.925781 166.6875 30.179688 167.070312 30.527344 167.386719 C 30.878906 167.707031 31.28125 167.925781 31.738281 168.046875 C 32.199219 168.164062 32.65625 168.167969 33.117188 168.058594 C 33.578125 167.949219 33.984375 167.738281 34.339844 167.425781 L 38.699219 170.613281 C 38.402344 171.296875 38.375 171.988281 38.613281 172.695312 L 27.746094 179.347656 C 27.417969 179.007812 27.027344 178.761719 26.578125 178.617188 C 26.128906 178.46875 25.671875 178.4375 25.207031 178.515625 C 24.738281 178.597656 24.320312 178.78125 23.945312 179.070312 C 23.570312 179.359375 23.285156 179.71875 23.089844 180.152344 C 22.894531 180.582031 22.8125 181.03125 22.84375 181.503906 C 22.871094 181.976562 23.011719 182.414062 23.257812 182.816406 C 23.503906 183.222656 23.832031 183.542969 24.238281 183.785156 C 24.644531 184.023438 25.085938 184.15625 25.554688 184.179688 C 26.027344 184.199219 26.480469 184.109375 26.90625 183.910156 C 27.335938 183.707031 27.691406 183.417969 27.972656 183.039062 C 28.257812 182.660156 28.4375 182.238281 28.507812 181.773438 C 28.582031 181.304688 28.542969 180.847656 28.390625 180.402344 L 39.257812 173.746094 C 39.820312 174.332031 40.507812 174.621094 41.316406 174.621094 C 41.652344 174.621094 41.976562 174.5625 42.289062 174.449219 L 44.390625 178.21875 C 44.042969 178.53125 43.785156 178.90625 43.625 179.347656 C 43.460938 179.785156 43.410156 180.238281 43.472656 180.703125 C 43.535156 181.167969 43.703125 181.59375 43.972656 181.972656 C 44.246094 182.355469 44.59375 182.652344 45.011719 182.863281 C 45.429688 183.070312 45.875 183.171875 46.34375 183.160156 C 46.8125 183.152344 47.25 183.03125 47.660156 182.800781 C 48.070312 182.574219 48.402344 182.261719 48.65625 181.867188 C 48.910156 181.476562 49.058594 181.042969 49.101562 180.578125 C 49.140625 180.109375 49.070312 179.660156 48.886719 179.226562 C 48.707031 178.796875 48.433594 178.433594 48.070312 178.136719 C 47.707031 177.839844 47.292969 177.644531 46.835938 177.554688 C 46.375 177.460938 45.921875 177.480469 45.472656 177.617188 L 43.328125 173.789062 C 43.660156 173.460938 43.898438 173.070312 44.039062 172.625 C 44.179688 172.175781 44.207031 171.722656 44.125 171.261719 C 44.042969 170.800781 43.855469 170.382812 43.570312 170.015625 C 43.28125 169.644531 42.925781 169.363281 42.5 169.167969 L 45.546875 154.84375 C 45.621094 154.84375 45.695312 154.84375 45.769531 154.84375 C 46.019531 154.84375 46.265625 154.824219 46.511719 154.777344 L 49.269531 162.574219 L 53.679688 176.101562 C 52.960938 176.589844 52.644531 177.265625 52.726562 178.132812 C 52.808594 178.996094 53.25 179.601562 54.042969 179.945312 L 51.273438 187.328125 C 50.382812 187.164062 49.550781 187.320312 48.777344 187.796875 C 48.003906 188.273438 47.492188 188.945312 47.238281 189.816406 L 41.976562 189.253906 C 41.878906 188.707031 41.613281 188.261719 41.179688 187.917969 C 40.746094 187.570312 40.253906 187.414062 39.703125 187.441406 C 39.148438 187.464844 38.671875 187.671875 38.273438 188.058594 C 37.875 188.441406 37.65625 188.910156 37.609375 189.464844 C 37.566406 190.015625 37.707031 190.511719 38.039062 190.957031 C 38.371094 191.402344 38.804688 191.683594 39.347656 191.796875 L 40.53125 207.789062 C 40.078125 207.921875 39.683594 208.15625 39.347656 208.488281 C 39.007812 208.824219 38.769531 209.214844 38.628906 209.667969 C 38.484375 210.117188 38.457031 210.578125 38.542969 211.042969 C 38.628906 211.507812 38.816406 211.925781 39.113281 212.296875 C 39.40625 212.667969 39.769531 212.949219 40.203125 213.140625 C 40.636719 213.332031 41.089844 213.410156 41.5625 213.375 C 42.035156 213.339844 42.46875 213.195312 42.871094 212.945312 C 43.273438 212.695312 43.589844 212.363281 43.828125 211.953125 C 44.066406 211.542969 44.191406 211.101562 44.207031 210.628906 C 44.226562 210.152344 44.128906 209.703125 43.925781 209.277344 C 43.71875 208.851562 43.421875 208.5 43.042969 208.21875 C 42.660156 207.941406 42.234375 207.765625 41.765625 207.695312 L 40.582031 191.707031 C 41.179688 191.480469 41.605469 191.074219 41.847656 190.480469 L 47.105469 191.042969 C 47.148438 191.660156 47.339844 192.226562 47.679688 192.742188 C 48.019531 193.261719 48.464844 193.660156 49.015625 193.941406 C 49.566406 194.226562 50.148438 194.355469 50.765625 194.332031 C 51.386719 194.308594 51.957031 194.132812 52.484375 193.808594 C 53.011719 193.484375 53.421875 193.050781 53.722656 192.507812 C 54.019531 191.96875 54.167969 191.386719 54.160156 190.769531 C 54.15625 190.152344 54 189.574219 53.691406 189.039062 C 53.378906 188.503906 52.960938 188.078125 52.429688 187.761719 L 55.304688 180.097656 C 55.691406 180.027344 56.03125 179.871094 56.332031 179.621094 C 56.632812 179.371094 56.851562 179.066406 56.988281 178.699219 C 57.125 178.335938 57.164062 177.960938 57.101562 177.574219 C 57.039062 177.191406 56.886719 176.84375 56.640625 176.542969 L 59.242188 169.386719 C 59.601562 169.476562 59.96875 169.535156 60.339844 169.554688 L 61.902344 189.054688 C 60.34375 189.421875 59.183594 190.941406 59.183594 192.492188 C 59.183594 194.046875 60.019531 195.132812 61.226562 195.695312 L 53.453125 219.660156 L 53.335938 219.660156 C 52.867188 219.660156 52.425781 219.769531 52.011719 219.988281 C 51.59375 220.207031 51.253906 220.507812 50.988281 220.894531 C 50.722656 221.28125 50.5625 221.710938 50.507812 222.175781 C 50.453125 222.640625 50.507812 223.09375 50.675781 223.53125 C 50.84375 223.96875 51.105469 224.34375 51.457031 224.652344 C 51.808594 224.960938 52.214844 225.171875 52.671875 225.28125 C 53.125 225.394531 53.582031 225.390625 54.035156 225.277344 C 54.492188 225.160156 54.894531 224.949219 55.242188 224.636719 C 55.59375 224.320312 55.851562 223.945312 56.011719 223.507812 C 56.175781 223.066406 56.230469 222.613281 56.167969 222.148438 C 56.109375 221.683594 55.945312 221.257812 55.675781 220.875 C 55.40625 220.488281 55.066406 220.191406 54.648438 219.976562 L 62.421875 196.011719 C 62.515625 196.019531 61.6875 196.027344 62.714844 196.027344 C 63.738281 196.027344 66.246094 194.054688 66.246094 192.496094 C 66.246094 190.933594 65.675781 190.285156 64.800781 189.644531 L 66.148438 183.035156 C 66.945312 183.34375 67.761719 183.398438 68.59375 183.195312 C 69.425781 182.992188 70.125 182.570312 70.695312 181.929688 C 71.261719 181.289062 71.59375 180.542969 71.695312 179.691406 C 71.792969 178.839844 71.640625 178.039062 71.238281 177.28125 L 84.585938 166.78125 C 84.625 166.816406 84.660156 166.847656 84.699219 166.882812 L 78.765625 177.351562 C 78.476562 177.261719 78.183594 177.214844 77.878906 177.214844 C 76.523438 177.214844 75.605469 177.851562 75.121094 179.121094 C 74.640625 180.390625 74.910156 181.472656 75.921875 182.375 L 70.886719 197.074219 C 70.609375 196.988281 70.972656 196.9375 70 196.9375 C 69.03125 196.9375 67.050781 198.257812 67.050781 199.890625 C 67.050781 200.707031 67.339844 201.402344 67.914062 201.976562 C 68.492188 202.554688 69.1875 202.84375 70 202.84375 C 71.632812 202.84375 72.953125 201.144531 72.953125 199.890625 C 72.953125 198.636719 72.570312 198.226562 71.960938 197.683594 L 76.996094 182.984375 L 77.152344 183.027344 L 80.101562 191.445312 C 79.609375 191.554688 79.210938 191.808594 78.902344 192.207031 C 78.59375 192.605469 78.445312 193.054688 78.457031 193.558594 C 78.457031 194.667969 79.433594 195.734375 80.636719 195.734375 C 81.839844 195.734375 82.816406 194.636719 82.816406 193.558594 C 82.816406 192.476562 82.195312 191.785156 81.332031 191.496094 L 78.382812 183.074219 C 79.082031 182.953125 79.660156 182.625 80.121094 182.082031 C 80.582031 181.542969 80.820312 180.917969 80.828125 180.210938 L 94.3125 177.511719 C 94.476562 177.824219 94.703125 178.078125 94.992188 178.28125 C 95.28125 178.480469 95.597656 178.605469 95.949219 178.652344 C 96.296875 178.699219 96.636719 178.664062 96.96875 178.546875 C 97.300781 178.429688 97.585938 178.242188 97.824219 177.984375 C 98.066406 177.730469 98.234375 177.433594 98.332031 177.09375 C 98.429688 176.753906 98.441406 176.414062 98.375 176.070312 C 98.304688 175.722656 98.160156 175.414062 97.941406 175.140625 C 97.722656 174.863281 97.453125 174.65625 97.132812 174.511719 C 96.808594 174.367188 96.472656 174.304688 96.121094 174.324219 C 95.773438 174.339844 95.445312 174.4375 95.140625 174.617188 C 94.835938 174.792969 94.589844 175.03125 94.402344 175.328125 C 94.214844 175.625 94.101562 175.949219 94.070312 176.296875 L 80.578125 178.996094 C 80.40625 178.59375 80.152344 178.25 79.828125 177.960938 L 85.761719 167.492188 C 86.238281 167.660156 86.730469 167.726562 87.238281 167.6875 C 87.742188 167.644531 88.21875 167.503906 88.664062 167.261719 C 89.109375 167.019531 89.488281 166.699219 89.796875 166.296875 C 90.105469 165.894531 90.320312 165.445312 90.4375 164.953125 C 90.554688 164.460938 90.570312 163.964844 90.476562 163.464844 C 90.382812 162.964844 90.195312 162.507812 89.90625 162.089844 C 89.617188 161.671875 89.257812 161.328125 88.824219 161.066406 C 88.394531 160.800781 87.925781 160.636719 87.421875 160.570312 L 86.960938 150.210938 C 87.5625 150.078125 88.089844 149.808594 88.546875 149.402344 L 98.925781 157.742188 C 98.636719 158.269531 98.484375 158.835938 98.480469 159.4375 C 98.472656 160.042969 98.609375 160.609375 98.890625 161.144531 C 99.171875 161.675781 99.5625 162.113281 100.0625 162.449219 C 100.5625 162.785156 101.113281 162.984375 101.714844 163.042969 C 102.3125 163.101562 102.890625 163.011719 103.449219 162.777344 C 104.003906 162.546875 104.472656 162.195312 104.847656 161.726562 C 105.226562 161.253906 105.472656 160.726562 105.582031 160.132812 C 105.691406 159.539062 105.65625 158.957031 105.472656 158.382812 C 105.285156 157.808594 104.976562 157.3125 104.542969 156.894531 C 104.109375 156.476562 103.601562 156.1875 103.019531 156.027344 C 102.4375 155.863281 101.851562 155.851562 101.265625 155.984375 C 100.675781 156.117188 100.15625 156.382812 99.703125 156.78125 L 89.339844 148.441406 C 89.589844 147.988281 89.734375 147.503906 89.773438 146.988281 C 89.8125 146.472656 89.746094 145.972656 89.566406 145.488281 C 89.390625 145 89.121094 144.574219 88.757812 144.207031 C 88.394531 143.835938 87.972656 143.558594 87.488281 143.375 C 87.007812 143.1875 86.507812 143.109375 85.992188 143.140625 C 85.476562 143.171875 84.988281 143.308594 84.53125 143.550781 C 84.074219 143.792969 83.6875 144.117188 83.371094 144.527344 C 83.054688 144.9375 82.839844 145.394531 82.722656 145.894531 L 70.921875 145.222656 C 70.871094 144.40625 70.644531 143.644531 70.238281 142.9375 L 75.59375 138.941406 C 76.015625 139.335938 76.507812 139.601562 77.066406 139.742188 C 77.621094 139.882812 78.179688 139.878906 78.738281 139.738281 C 79.296875 139.59375 79.785156 139.324219 80.203125 138.929688 C 80.625 138.539062 80.925781 138.066406 81.105469 137.523438 L 96.363281 139.636719 C 96.410156 140.0625 96.550781 140.453125 96.789062 140.8125 C 97.027344 141.167969 97.332031 141.449219 97.710938 141.65625 C 98.085938 141.863281 98.488281 141.96875 98.917969 141.976562 C 99.347656 141.984375 99.753906 141.890625 100.136719 141.695312 C 100.519531 141.503906 100.835938 141.230469 101.085938 140.882812 C 101.335938 140.53125 101.488281 140.144531 101.546875 139.71875 C 101.605469 139.296875 101.558594 138.878906 101.414062 138.476562 C 101.265625 138.074219 101.035156 137.726562 100.71875 137.4375 C 100.402344 137.148438 100.035156 136.949219 99.621094 136.84375 C 99.203125 136.734375 98.789062 136.726562 98.371094 136.824219 C 97.953125 136.921875 97.582031 137.113281 97.253906 137.390625 C 96.929688 137.671875 96.691406 138.011719 96.53125 138.410156 L 81.273438 136.3125 C 81.253906 135.839844 81.140625 135.394531 80.933594 134.972656 L 88.410156 129.394531 C 88.738281 129.667969 89.113281 129.847656 89.535156 129.933594 C 89.953125 130.023438 90.371094 130.007812 90.78125 129.890625 C 91.195312 129.773438 91.554688 129.566406 91.867188 129.269531 C 92.175781 128.976562 92.398438 128.625 92.535156 128.21875 C 92.675781 127.8125 92.710938 127.398438 92.640625 126.972656 C 92.574219 126.550781 92.414062 126.167969 92.15625 125.824219 C 91.898438 125.480469 91.578125 125.214844 91.191406 125.03125 C 90.804688 124.847656 90.398438 124.761719 89.96875 124.777344 C 89.539062 124.792969 89.140625 124.910156 88.769531 125.125 C 88.398438 125.335938 88.097656 125.625 87.867188 125.988281 C 87.636719 126.347656 87.503906 126.742188 87.46875 127.171875 C 87.433594 127.597656 87.5 128.007812 87.667969 128.402344 L 80.191406 133.984375 C 79.519531 133.363281 78.730469 133.0625 77.816406 133.082031 C 76.90625 133.101562 76.128906 133.4375 75.488281 134.085938 L 66.992188 128.300781 C 67.140625 127.898438 67.191406 127.484375 67.136719 127.0625 C 67.085938 126.636719 66.9375 126.246094 66.691406 125.894531 C 66.449219 125.542969 66.136719 125.265625 65.757812 125.066406 C 65.378906 124.867188 64.972656 124.769531 64.546875 124.765625 Z M 112.066406 150.988281 C 114.921875 199.007812 59.238281 189.84375 58.304688 246.445312 C 65.742188 234.492188 73.664062 229.726562 82.078125 232.148438 C 94.152344 240.183594 101.726562 240.277344 104.800781 232.433594 C 104.324219 229.285156 105.109375 227.117188 107.160156 225.921875 C 110.835938 225.644531 112.230469 223.828125 111.34375 220.46875 C 114.460938 221.242188 116.191406 220.4375 116.53125 218.050781 C 115.316406 213.679688 117.589844 211.417969 123.351562 211.269531 C 127.445312 210.925781 129.3125 209.433594 128.945312 206.796875 C 127.484375 199.496094 126.480469 194.320312 125.933594 191.273438 C 124.597656 186.613281 125.339844 182.167969 128.164062 177.933594 C 138.59375 154.539062 132.855469 134.183594 110.953125 116.867188 C 80.839844 96.464844 53.214844 100.074219 36.1875 119.390625 C 39.402344 116.558594 42.941406 114.226562 46.8125 112.390625 C 50.683594 110.554688 54.730469 109.285156 58.957031 108.585938 C 63.183594 107.890625 67.425781 107.785156 71.679688 108.28125 C 75.9375 108.773438 80.042969 109.84375 83.996094 111.492188 C 87.949219 113.136719 91.601562 115.296875 94.949219 117.96875 C 98.296875 120.644531 101.210938 123.726562 103.691406 127.21875 C 106.171875 130.710938 108.125 134.476562 109.546875 138.515625 C 110.96875 142.558594 111.808594 146.714844 112.0625 150.992188 Z M 112.066406 150.988281 " clip-rule="evenodd"/></clipPath></defs><rect x="-37.5" width="450" fill="#ffffff" y="-37.499999" height="449.999989" fill-opacity="1"/><rect x="-37.5" width="450" fill="#ffffff" y="-37.499999" height="449.999989" fill-opacity="1"/><g fill="#060644" fill-opacity="1"><g transform="translate(143.805977, 195.383704)"><g><path d="M 20.15625 -39.421875 C 31.175781 -39.421875 36.6875 -32.773438 36.6875 -19.484375 C 36.6875 -13.398438 35.113281 -8.59375 31.96875 -5.0625 C 28.832031 -1.539062 24.894531 0.21875 20.15625 0.21875 C 15.113281 0.21875 11.210938 -1.160156 8.453125 -3.921875 C 5.242188 -7.203125 3.640625 -12.144531 3.640625 -18.75 C 3.640625 -25.363281 5.21875 -30.460938 8.375 -34.046875 C 11.53125 -37.628906 15.457031 -39.421875 20.15625 -39.421875 Z M 11.203125 -6.609375 C 13.253906 -4.296875 16.238281 -3.140625 20.15625 -3.140625 C 23.851562 -3.140625 26.894531 -4.601562 29.28125 -7.53125 C 31.675781 -10.457031 32.875 -14.664062 32.875 -20.15625 C 32.875 -25.644531 31.625 -29.769531 29.125 -32.53125 C 27.03125 -34.882812 24.039062 -36.0625 20.15625 -36.0625 C 16.5 -36.0625 13.46875 -34.585938 11.0625 -31.640625 C 8.65625 -28.691406 7.453125 -24.460938 7.453125 -18.953125 C 7.453125 -13.453125 8.703125 -9.335938 11.203125 -6.609375 Z M 11.203125 -6.609375 "/></g></g></g><g fill="#060644" fill-opacity="1"><g transform="translate(184.120351, 195.383704)"><g><path d="M 4.484375 0 L 4.484375 -39.203125 L 12.59375 -39.203125 C 17.1875 -39.203125 20.507812 -38.472656 22.5625 -37.015625 C 24.957031 -35.335938 26.15625 -32.460938 26.15625 -28.390625 C 26.15625 -21.597656 23.539062 -17.453125 18.3125 -15.953125 C 16.632812 -15.472656 14.726562 -15.234375 12.59375 -15.234375 L 8.28125 -15.234375 L 8.28125 0 Z M 8.28125 -36.125 L 8.28125 -18.3125 L 12.3125 -18.3125 C 15.675781 -18.3125 18.1875 -19.046875 19.84375 -20.515625 C 21.507812 -21.992188 22.34375 -24.40625 22.34375 -27.75 C 22.34375 -31.09375 21.507812 -33.320312 19.84375 -34.4375 C 18.1875 -35.5625 15.675781 -36.125 12.3125 -36.125 Z M 8.28125 -36.125 "/></g></g></g><g fill="#060644" fill-opacity="1"><g transform="translate(213.908186, 195.383704)"><g><path d="M 25.703125 0 L 4.484375 0 L 4.484375 -39.203125 L 8.28125 -39.203125 L 8.28125 -3.359375 L 25.984375 -3.359375 Z M 25.703125 0 "/></g></g></g><g fill="#060644" fill-opacity="1"><g transform="translate(242.408208, 195.383704)"><g><path d="M 24.578125 -35.84375 L 8.28125 -35.84375 L 8.28125 -21.109375 L 23.40625 -21.109375 L 23.125 -17.75 L 8.28125 -17.75 L 8.28125 -3.359375 L 25.984375 -3.359375 L 25.703125 0 L 4.484375 0 L 4.484375 -39.203125 L 24.859375 -39.203125 Z M 24.578125 -35.84375 "/></g></g></g><g fill="#060644" fill-opacity="1"><g transform="translate(270.628272, 195.383704)"><g><path d="M 26.15625 -28.671875 C 26.15625 -23.296875 24.304688 -19.691406 20.609375 -17.859375 L 29.0625 0 L 24.96875 0 L 17.03125 -16.6875 C 15.6875 -16.46875 14.207031 -16.359375 12.59375 -16.359375 L 8.28125 -16.359375 L 8.28125 0 L 4.484375 0 L 4.484375 -39.203125 L 12.59375 -39.203125 C 17.15625 -39.203125 20.476562 -38.492188 22.5625 -37.078125 C 24.957031 -35.460938 26.15625 -32.660156 26.15625 -28.671875 Z M 8.28125 -36.125 L 8.28125 -19.4375 L 12.3125 -19.4375 C 15.632812 -19.4375 18.132812 -20.109375 19.8125 -21.453125 C 21.5 -22.796875 22.34375 -25.128906 22.34375 -28.453125 C 22.34375 -32.703125 20.398438 -35.164062 16.515625 -35.84375 C 15.285156 -36.03125 13.882812 -36.125 12.3125 -36.125 Z M 8.28125 -36.125 "/></g></g></g><g fill="#060644" fill-opacity="1"><g transform="translate(302.207864, 195.383704)"><g><path d="M 26.984375 -10.359375 L 9.75 -10.359375 L 6.15625 0 L 2.515625 0 L 16.6875 -39.203125 L 20.109375 -39.203125 L 34.78125 0 L 30.6875 0 Z M 10.703125 -13.15625 L 25.984375 -13.15625 L 18.203125 -34.9375 Z M 10.703125 -13.15625 "/></g></g></g><g transform="matrix(1, 0, 0, 1, 151, 206)"><g clip-path="url(#0ce8595735)"><g clip-path="url(#f6104db094)"><g fill="#0d1164" fill-opacity="1"><g transform="translate(0.821894, 4.861924)"><g><path d="M 1.3125 0 L 1.3125 -3.171875 L 0.09375 -3.171875 L 0.09375 -3.5625 L 2.953125 -3.5625 L 2.953125 -3.171875 L 1.734375 -3.171875 L 1.734375 0 Z M 1.3125 0 "/></g></g></g></g><g fill="#0d1164" fill-opacity="1"><g transform="translate(6.933105, 4.861924)"><g><path d="M 0.46875 0 L 0.46875 -3.5625 L 0.921875 -3.5625 L 0.921875 -2.015625 L 2.953125 -2.015625 L 2.953125 -3.5625 L 3.390625 -3.5625 L 3.390625 0 L 2.953125 0 L 2.953125 -1.609375 L 0.921875 -1.609375 L 0.921875 0 Z M 0.46875 0 "/></g></g></g><g fill="#0d1164" fill-opacity="1"><g transform="translate(13.865612, 4.861924)"><g><path d="M 0.46875 0 L 0.46875 -3.5625 L 2.984375 -3.5625 L 2.984375 -3.15625 L 0.921875 -3.15625 L 0.921875 -2.046875 L 2.890625 -2.046875 L 2.890625 -1.625 L 0.921875 -1.625 L 0.921875 -0.421875 L 3.0625 -0.421875 L 3.0625 0 Z M 0.46875 0 "/></g></g></g><g fill="#0d1164" fill-opacity="1"><g transform="translate(20.247185, 4.861924)"><g/></g></g><g fill="#0d1164" fill-opacity="1"><g transform="translate(24.613783, 4.861924)"><g><path d="M 0.46875 0 L 0.46875 -3.5625 L 2.984375 -3.5625 L 2.984375 -3.15625 L 0.921875 -3.15625 L 0.921875 -2.046875 L 2.890625 -2.046875 L 2.890625 -1.625 L 0.921875 -1.625 L 0.921875 -0.421875 L 3.0625 -0.421875 L 3.0625 0 Z M 0.46875 0 "/></g></g></g><g fill="#0d1164" fill-opacity="1"><g transform="translate(30.995356, 4.861924)"><g><path d="M 0.46875 0 L 0.46875 -3.5625 L 2.09375 -3.5625 C 2.363281 -3.5625 2.585938 -3.503906 2.765625 -3.390625 C 2.941406 -3.285156 3.070312 -3.144531 3.15625 -2.96875 C 3.25 -2.800781 3.296875 -2.617188 3.296875 -2.421875 C 3.296875 -2.242188 3.257812 -2.070312 3.1875 -1.90625 C 3.125 -1.75 3.019531 -1.613281 2.875 -1.5 C 2.726562 -1.394531 2.53125 -1.332031 2.28125 -1.3125 L 3.453125 0 L 2.890625 0 L 1.78125 -1.28125 L 0.921875 -1.28125 L 0.921875 0 Z M 0.921875 -1.6875 L 2.078125 -1.6875 C 2.335938 -1.6875 2.53125 -1.753906 2.65625 -1.890625 C 2.789062 -2.035156 2.859375 -2.210938 2.859375 -2.421875 C 2.859375 -2.535156 2.828125 -2.648438 2.765625 -2.765625 C 2.710938 -2.878906 2.628906 -2.972656 2.515625 -3.046875 C 2.410156 -3.128906 2.269531 -3.171875 2.09375 -3.171875 L 0.921875 -3.171875 Z M 0.921875 -1.6875 "/></g></g></g><g fill="#0d1164" fill-opacity="1"><g transform="translate(37.688105, 4.861924)"><g><path d="M 0.09375 0 L 1.6875 -3.5625 L 2.1875 -3.5625 L 3.78125 0 L 3.3125 0 L 2.953125 -0.78125 L 0.921875 -0.78125 L 0.578125 0 Z M 1.09375 -1.203125 L 2.78125 -1.203125 L 1.9375 -3.125 Z M 1.09375 -1.203125 "/></g></g></g><g fill="#0d1164" fill-opacity="1"><g transform="translate(44.620612, 4.861924)"><g/></g></g><g fill="#0d1164" fill-opacity="1"><g transform="translate(48.98721, 4.861924)"><g><path d="M 2.0625 0.078125 C 1.757812 0.078125 1.492188 0.0234375 1.265625 -0.078125 C 1.035156 -0.179688 0.84375 -0.320312 0.6875 -0.5 C 0.539062 -0.675781 0.429688 -0.875 0.359375 -1.09375 C 0.285156 -1.3125 0.25 -1.535156 0.25 -1.765625 C 0.25 -2.035156 0.289062 -2.28125 0.375 -2.5 C 0.457031 -2.726562 0.578125 -2.925781 0.734375 -3.09375 C 0.890625 -3.269531 1.078125 -3.40625 1.296875 -3.5 C 1.523438 -3.59375 1.78125 -3.640625 2.0625 -3.640625 C 2.363281 -3.640625 2.628906 -3.585938 2.859375 -3.484375 C 3.085938 -3.378906 3.273438 -3.238281 3.421875 -3.0625 C 3.566406 -2.882812 3.675781 -2.679688 3.75 -2.453125 C 3.832031 -2.234375 3.875 -2.003906 3.875 -1.765625 C 3.875 -1.535156 3.832031 -1.3125 3.75 -1.09375 C 3.675781 -0.875 3.566406 -0.675781 3.421875 -0.5 C 3.273438 -0.320312 3.085938 -0.179688 2.859375 -0.078125 C 2.628906 0.0234375 2.363281 0.078125 2.0625 0.078125 Z M 2.0625 -0.34375 C 2.300781 -0.34375 2.503906 -0.378906 2.671875 -0.453125 C 2.847656 -0.535156 2.988281 -0.644531 3.09375 -0.78125 C 3.207031 -0.925781 3.289062 -1.082031 3.34375 -1.25 C 3.40625 -1.414062 3.4375 -1.585938 3.4375 -1.765625 C 3.4375 -1.953125 3.40625 -2.128906 3.34375 -2.296875 C 3.289062 -2.472656 3.207031 -2.628906 3.09375 -2.765625 C 2.988281 -2.898438 2.847656 -3.007812 2.671875 -3.09375 C 2.503906 -3.175781 2.300781 -3.222656 2.0625 -3.234375 C 1.757812 -3.234375 1.503906 -3.164062 1.296875 -3.03125 C 1.097656 -2.894531 0.945312 -2.710938 0.84375 -2.484375 C 0.738281 -2.265625 0.6875 -2.023438 0.6875 -1.765625 C 0.6875 -1.585938 0.710938 -1.414062 0.765625 -1.25 C 0.828125 -1.082031 0.914062 -0.925781 1.03125 -0.78125 C 1.144531 -0.644531 1.285156 -0.535156 1.453125 -0.453125 C 1.628906 -0.378906 1.832031 -0.34375 2.0625 -0.34375 Z M 2.0625 -0.34375 "/></g></g></g><g fill="#0d1164" fill-opacity="1"><g transform="translate(56.169674, 4.861924)"><g><path d="M 0.46875 0 L 0.46875 -3.5625 L 2.953125 -3.5625 L 2.953125 -3.140625 L 0.921875 -3.140625 L 0.921875 -1.90625 L 2.859375 -1.90625 L 2.859375 -1.5 L 0.921875 -1.5 L 0.921875 0 Z M 0.46875 0 "/></g></g></g><g fill="#0d1164" fill-opacity="1"><g transform="translate(62.418618, 4.861924)"><g/></g></g><g fill="#0d1164" fill-opacity="1"><g transform="translate(66.785216, 4.861924)"><g><path d="M 1.703125 0.078125 C 1.503906 0.078125 1.304688 0.0507812 1.109375 0 C 0.910156 -0.0625 0.734375 -0.148438 0.578125 -0.265625 C 0.421875 -0.390625 0.296875 -0.550781 0.203125 -0.75 L 0.5625 -0.96875 C 0.675781 -0.75 0.832031 -0.585938 1.03125 -0.484375 C 1.238281 -0.390625 1.460938 -0.34375 1.703125 -0.34375 C 1.816406 -0.34375 1.929688 -0.347656 2.046875 -0.359375 C 2.160156 -0.378906 2.269531 -0.414062 2.375 -0.46875 C 2.476562 -0.519531 2.5625 -0.585938 2.625 -0.671875 C 2.6875 -0.765625 2.71875 -0.878906 2.71875 -1.015625 C 2.71875 -1.160156 2.671875 -1.273438 2.578125 -1.359375 C 2.484375 -1.441406 2.359375 -1.503906 2.203125 -1.546875 C 2.046875 -1.585938 1.875 -1.625 1.6875 -1.65625 C 1.519531 -1.6875 1.351562 -1.71875 1.1875 -1.75 C 1.019531 -1.789062 0.875 -1.84375 0.75 -1.90625 C 0.625 -1.976562 0.519531 -2.070312 0.4375 -2.1875 C 0.363281 -2.3125 0.328125 -2.46875 0.328125 -2.65625 C 0.328125 -2.832031 0.367188 -2.984375 0.453125 -3.109375 C 0.535156 -3.234375 0.644531 -3.332031 0.78125 -3.40625 C 0.925781 -3.488281 1.078125 -3.546875 1.234375 -3.578125 C 1.390625 -3.617188 1.546875 -3.640625 1.703125 -3.640625 C 1.867188 -3.640625 2.035156 -3.617188 2.203125 -3.578125 C 2.367188 -3.546875 2.523438 -3.484375 2.671875 -3.390625 C 2.816406 -3.296875 2.941406 -3.160156 3.046875 -2.984375 L 2.71875 -2.765625 C 2.613281 -2.921875 2.46875 -3.035156 2.28125 -3.109375 C 2.09375 -3.191406 1.898438 -3.234375 1.703125 -3.234375 C 1.554688 -3.234375 1.410156 -3.210938 1.265625 -3.171875 C 1.117188 -3.128906 1 -3.0625 0.90625 -2.96875 C 0.8125 -2.882812 0.765625 -2.773438 0.765625 -2.640625 C 0.765625 -2.515625 0.804688 -2.410156 0.890625 -2.328125 C 0.984375 -2.253906 1.101562 -2.195312 1.25 -2.15625 C 1.40625 -2.113281 1.566406 -2.078125 1.734375 -2.046875 C 1.910156 -2.015625 2.082031 -1.976562 2.25 -1.9375 C 2.414062 -1.90625 2.566406 -1.847656 2.703125 -1.765625 C 2.835938 -1.691406 2.945312 -1.59375 3.03125 -1.46875 C 3.113281 -1.351562 3.15625 -1.195312 3.15625 -1 C 3.15625 -0.800781 3.109375 -0.632812 3.015625 -0.5 C 2.929688 -0.363281 2.816406 -0.253906 2.671875 -0.171875 C 2.535156 -0.0859375 2.378906 -0.0234375 2.203125 0.015625 C 2.035156 0.0546875 1.867188 0.078125 1.703125 0.078125 Z M 1.703125 0.078125 "/></g></g></g><g fill="#0d1164" fill-opacity="1"><g transform="translate(73.228009, 4.861924)"><g><path d="M 0.46875 0 L 0.46875 -3.5625 L 1.015625 -3.5625 L 2.25 -1.734375 L 3.5 -3.5625 L 4.03125 -3.5625 L 4.03125 0 L 3.59375 0 L 3.59375 -2.921875 L 2.296875 -1.125 L 2.203125 -1.125 L 0.921875 -2.9375 L 0.921875 0 Z M 0.46875 0 "/></g></g></g><g fill="#0d1164" fill-opacity="1"><g transform="translate(80.798162, 4.861924)"><g><path d="M 0.09375 0 L 1.6875 -3.5625 L 2.1875 -3.5625 L 3.78125 0 L 3.3125 0 L 2.953125 -0.78125 L 0.921875 -0.78125 L 0.578125 0 Z M 1.09375 -1.203125 L 2.78125 -1.203125 L 1.9375 -3.125 Z M 1.09375 -1.203125 "/></g></g></g><g fill="#0d1164" fill-opacity="1"><g transform="translate(87.730669, 4.861924)"><g><path d="M 0.46875 0 L 0.46875 -3.5625 L 2.09375 -3.5625 C 2.363281 -3.5625 2.585938 -3.503906 2.765625 -3.390625 C 2.941406 -3.285156 3.070312 -3.144531 3.15625 -2.96875 C 3.25 -2.800781 3.296875 -2.617188 3.296875 -2.421875 C 3.296875 -2.242188 3.257812 -2.070312 3.1875 -1.90625 C 3.125 -1.75 3.019531 -1.613281 2.875 -1.5 C 2.726562 -1.394531 2.53125 -1.332031 2.28125 -1.3125 L 3.453125 0 L 2.890625 0 L 1.78125 -1.28125 L 0.921875 -1.28125 L 0.921875 0 Z M 0.921875 -1.6875 L 2.078125 -1.6875 C 2.335938 -1.6875 2.53125 -1.753906 2.65625 -1.890625 C 2.789062 -2.035156 2.859375 -2.210938 2.859375 -2.421875 C 2.859375 -2.535156 2.828125 -2.648438 2.765625 -2.765625 C 2.710938 -2.878906 2.628906 -2.972656 2.515625 -3.046875 C 2.410156 -3.128906 2.269531 -3.171875 2.09375 -3.171875 L 0.921875 -3.171875 Z M 0.921875 -1.6875 "/></g></g></g><g fill="#0d1164" fill-opacity="1"><g transform="translate(94.423418, 4.861924)"><g><path d="M 1.3125 0 L 1.3125 -3.171875 L 0.09375 -3.171875 L 0.09375 -3.5625 L 2.953125 -3.5625 L 2.953125 -3.171875 L 1.734375 -3.171875 L 1.734375 0 Z M 1.3125 0 "/></g></g></g><g fill="#0d1164" fill-opacity="1"><g transform="translate(100.534628, 4.861924)"><g><path d="M 0.46875 0 L 0.46875 -3.5625 L 2.984375 -3.5625 L 2.984375 -3.15625 L 0.921875 -3.15625 L 0.921875 -2.046875 L 2.890625 -2.046875 L 2.890625 -1.625 L 0.921875 -1.625 L 0.921875 -0.421875 L 3.0625 -0.421875 L 3.0625 0 Z M 0.46875 0 "/></g></g></g><g fill="#0d1164" fill-opacity="1"><g transform="translate(106.916202, 4.861924)"><g><path d="M 0.46875 0 L 0.46875 -3.5625 L 2.09375 -3.5625 C 2.363281 -3.5625 2.585938 -3.503906 2.765625 -3.390625 C 2.941406 -3.285156 3.070312 -3.144531 3.15625 -2.96875 C 3.25 -2.800781 3.296875 -2.617188 3.296875 -2.421875 C 3.296875 -2.242188 3.257812 -2.070312 3.1875 -1.90625 C 3.125 -1.75 3.019531 -1.613281 2.875 -1.5 C 2.726562 -1.394531 2.53125 -1.332031 2.28125 -1.3125 L 3.453125 0 L 2.890625 0 L 1.78125 -1.28125 L 0.921875 -1.28125 L 0.921875 0 Z M 0.921875 -1.6875 L 2.078125 -1.6875 C 2.335938 -1.6875 2.53125 -1.753906 2.65625 -1.890625 C 2.789062 -2.035156 2.859375 -2.210938 2.859375 -2.421875 C 2.859375 -2.535156 2.828125 -2.648438 2.765625 -2.765625 C 2.710938 -2.878906 2.628906 -2.972656 2.515625 -3.046875 C 2.410156 -3.128906 2.269531 -3.171875 2.09375 -3.171875 L 0.921875 -3.171875 Z M 0.921875 -1.6875 "/></g></g></g><g fill="#0d1164" fill-opacity="1"><g transform="translate(113.60895, 4.861924)"><g/></g></g><g fill="#0d1164" fill-opacity="1"><g transform="translate(117.975548, 4.861924)"><g><path d="M 2.0625 0.078125 C 1.757812 0.078125 1.492188 0.0234375 1.265625 -0.078125 C 1.035156 -0.179688 0.84375 -0.320312 0.6875 -0.5 C 0.539062 -0.675781 0.429688 -0.875 0.359375 -1.09375 C 0.285156 -1.3125 0.25 -1.535156 0.25 -1.765625 C 0.25 -2.035156 0.289062 -2.28125 0.375 -2.5 C 0.457031 -2.726562 0.578125 -2.925781 0.734375 -3.09375 C 0.890625 -3.269531 1.078125 -3.40625 1.296875 -3.5 C 1.523438 -3.59375 1.78125 -3.640625 2.0625 -3.640625 C 2.363281 -3.640625 2.628906 -3.585938 2.859375 -3.484375 C 3.085938 -3.378906 3.273438 -3.238281 3.421875 -3.0625 C 3.566406 -2.882812 3.675781 -2.679688 3.75 -2.453125 C 3.832031 -2.234375 3.875 -2.003906 3.875 -1.765625 C 3.875 -1.535156 3.832031 -1.3125 3.75 -1.09375 C 3.675781 -0.875 3.566406 -0.675781 3.421875 -0.5 C 3.273438 -0.320312 3.085938 -0.179688 2.859375 -0.078125 C 2.628906 0.0234375 2.363281 0.078125 2.0625 0.078125 Z M 2.0625 -0.34375 C 2.300781 -0.34375 2.503906 -0.378906 2.671875 -0.453125 C 2.847656 -0.535156 2.988281 -0.644531 3.09375 -0.78125 C 3.207031 -0.925781 3.289062 -1.082031 3.34375 -1.25 C 3.40625 -1.414062 3.4375 -1.585938 3.4375 -1.765625 C 3.4375 -1.953125 3.40625 -2.128906 3.34375 -2.296875 C 3.289062 -2.472656 3.207031 -2.628906 3.09375 -2.765625 C 2.988281 -2.898438 2.847656 -3.007812 2.671875 -3.09375 C 2.503906 -3.175781 2.300781 -3.222656 2.0625 -3.234375 C 1.757812 -3.234375 1.503906 -3.164062 1.296875 -3.03125 C 1.097656 -2.894531 0.945312 -2.710938 0.84375 -2.484375 C 0.738281 -2.265625 0.6875 -2.023438 0.6875 -1.765625 C 0.6875 -1.585938 0.710938 -1.414062 0.765625 -1.25 C 0.828125 -1.082031 0.914062 -0.925781 1.03125 -0.78125 C 1.144531 -0.644531 1.285156 -0.535156 1.453125 -0.453125 C 1.628906 -0.378906 1.832031 -0.34375 2.0625 -0.34375 Z M 2.0625 -0.34375 "/></g></g></g><g fill="#0d1164" fill-opacity="1"><g transform="translate(125.158011, 4.861924)"><g><path d="M 0.46875 0 L 0.46875 -3.5625 L 2.09375 -3.5625 C 2.363281 -3.5625 2.585938 -3.503906 2.765625 -3.390625 C 2.953125 -3.273438 3.09375 -3.125 3.1875 -2.9375 C 3.28125 -2.757812 3.328125 -2.566406 3.328125 -2.359375 C 3.328125 -2.160156 3.28125 -1.96875 3.1875 -1.78125 C 3.09375 -1.59375 2.953125 -1.441406 2.765625 -1.328125 C 2.585938 -1.210938 2.363281 -1.15625 2.09375 -1.15625 L 0.921875 -1.15625 L 0.921875 0 Z M 0.921875 -1.5625 L 2.09375 -1.5625 C 2.269531 -1.5625 2.414062 -1.597656 2.53125 -1.671875 C 2.644531 -1.753906 2.734375 -1.851562 2.796875 -1.96875 C 2.859375 -2.09375 2.890625 -2.222656 2.890625 -2.359375 C 2.890625 -2.492188 2.859375 -2.617188 2.796875 -2.734375 C 2.734375 -2.859375 2.644531 -2.957031 2.53125 -3.03125 C 2.414062 -3.113281 2.269531 -3.15625 2.09375 -3.15625 L 0.921875 -3.15625 Z M 0.921875 -1.5625 "/></g></g></g><g fill="#0d1164" fill-opacity="1"><g transform="translate(131.702816, 4.861924)"><g><path d="M 0.46875 0 L 0.46875 -3.5625 L 2.984375 -3.5625 L 2.984375 -3.15625 L 0.921875 -3.15625 L 0.921875 -2.046875 L 2.890625 -2.046875 L 2.890625 -1.625 L 0.921875 -1.625 L 0.921875 -0.421875 L 3.0625 -0.421875 L 3.0625 0 Z M 0.46875 0 "/></g></g></g><g fill="#0d1164" fill-opacity="1"><g transform="translate(138.084396, 4.861924)"><g><path d="M 0.46875 0 L 0.46875 -3.5625 L 2.09375 -3.5625 C 2.363281 -3.5625 2.585938 -3.503906 2.765625 -3.390625 C 2.941406 -3.285156 3.070312 -3.144531 3.15625 -2.96875 C 3.25 -2.800781 3.296875 -2.617188 3.296875 -2.421875 C 3.296875 -2.242188 3.257812 -2.070312 3.1875 -1.90625 C 3.125 -1.75 3.019531 -1.613281 2.875 -1.5 C 2.726562 -1.394531 2.53125 -1.332031 2.28125 -1.3125 L 3.453125 0 L 2.890625 0 L 1.78125 -1.28125 L 0.921875 -1.28125 L 0.921875 0 Z M 0.921875 -1.6875 L 2.078125 -1.6875 C 2.335938 -1.6875 2.53125 -1.753906 2.65625 -1.890625 C 2.789062 -2.035156 2.859375 -2.210938 2.859375 -2.421875 C 2.859375 -2.535156 2.828125 -2.648438 2.765625 -2.765625 C 2.710938 -2.878906 2.628906 -2.972656 2.515625 -3.046875 C 2.410156 -3.128906 2.269531 -3.171875 2.09375 -3.171875 L 0.921875 -3.171875 Z M 0.921875 -1.6875 "/></g></g></g><g fill="#0d1164" fill-opacity="1"><g transform="translate(144.777144, 4.861924)"><g><path d="M 0.09375 0 L 1.6875 -3.5625 L 2.1875 -3.5625 L 3.78125 0 L 3.3125 0 L 2.953125 -0.78125 L 0.921875 -0.78125 L 0.578125 0 Z M 1.09375 -1.203125 L 2.78125 -1.203125 L 1.9375 -3.125 Z M 1.09375 -1.203125 "/></g></g></g><g fill="#0d1164" fill-opacity="1"><g transform="translate(151.709645, 4.861924)"><g><path d="M 1.3125 0 L 1.3125 -3.171875 L 0.09375 -3.171875 L 0.09375 -3.5625 L 2.953125 -3.5625 L 2.953125 -3.171875 L 1.734375 -3.171875 L 1.734375 0 Z M 1.3125 0 "/></g></g></g><g fill="#0d1164" fill-opacity="1"><g transform="translate(157.820856, 4.861924)"><g><path d="M 0.46875 0 L 0.46875 -3.5625 L 0.921875 -3.5625 L 0.921875 0 Z M 0.46875 0 "/></g></g></g><g fill="#0d1164" fill-opacity="1"><g transform="translate(162.274178, 4.861924)"><g><path d="M 2.0625 0.078125 C 1.757812 0.078125 1.492188 0.0234375 1.265625 -0.078125 C 1.035156 -0.179688 0.84375 -0.320312 0.6875 -0.5 C 0.539062 -0.675781 0.429688 -0.875 0.359375 -1.09375 C 0.285156 -1.3125 0.25 -1.535156 0.25 -1.765625 C 0.25 -2.035156 0.289062 -2.28125 0.375 -2.5 C 0.457031 -2.726562 0.578125 -2.925781 0.734375 -3.09375 C 0.890625 -3.269531 1.078125 -3.40625 1.296875 -3.5 C 1.523438 -3.59375 1.78125 -3.640625 2.0625 -3.640625 C 2.363281 -3.640625 2.628906 -3.585938 2.859375 -3.484375 C 3.085938 -3.378906 3.273438 -3.238281 3.421875 -3.0625 C 3.566406 -2.882812 3.675781 -2.679688 3.75 -2.453125 C 3.832031 -2.234375 3.875 -2.003906 3.875 -1.765625 C 3.875 -1.535156 3.832031 -1.3125 3.75 -1.09375 C 3.675781 -0.875 3.566406 -0.675781 3.421875 -0.5 C 3.273438 -0.320312 3.085938 -0.179688 2.859375 -0.078125 C 2.628906 0.0234375 2.363281 0.078125 2.0625 0.078125 Z M 2.0625 -0.34375 C 2.300781 -0.34375 2.503906 -0.378906 2.671875 -0.453125 C 2.847656 -0.535156 2.988281 -0.644531 3.09375 -0.78125 C 3.207031 -0.925781 3.289062 -1.082031 3.34375 -1.25 C 3.40625 -1.414062 3.4375 -1.585938 3.4375 -1.765625 C 3.4375 -1.953125 3.40625 -2.128906 3.34375 -2.296875 C 3.289062 -2.472656 3.207031 -2.628906 3.09375 -2.765625 C 2.988281 -2.898438 2.847656 -3.007812 2.671875 -3.09375 C 2.503906 -3.175781 2.300781 -3.222656 2.0625 -3.234375 C 1.757812 -3.234375 1.503906 -3.164062 1.296875 -3.03125 C 1.097656 -2.894531 0.945312 -2.710938 0.84375 -2.484375 C 0.738281 -2.265625 0.6875 -2.023438 0.6875 -1.765625 C 0.6875 -1.585938 0.710938 -1.414062 0.765625 -1.25 C 0.828125 -1.082031 0.914062 -0.925781 1.03125 -0.78125 C 1.144531 -0.644531 1.285156 -0.535156 1.453125 -0.453125 C 1.628906 -0.378906 1.832031 -0.34375 2.0625 -0.34375 Z M 2.0625 -0.34375 "/></g></g></g><g fill="#0d1164" fill-opacity="1"><g transform="translate(169.456642, 4.861924)"><g><path d="M 0.46875 0 L 0.46875 -3.5625 L 0.78125 -3.5625 L 2.96875 -0.828125 L 2.96875 -3.5625 L 3.40625 -3.5625 L 3.40625 0 L 3.109375 0 L 0.921875 -2.71875 L 0.921875 0 Z M 0.46875 0 "/></g></g></g><g fill="#0d1164" fill-opacity="1"><g transform="translate(176.399352, 4.861924)"><g><path d="M 1.703125 0.078125 C 1.503906 0.078125 1.304688 0.0507812 1.109375 0 C 0.910156 -0.0625 0.734375 -0.148438 0.578125 -0.265625 C 0.421875 -0.390625 0.296875 -0.550781 0.203125 -0.75 L 0.5625 -0.96875 C 0.675781 -0.75 0.832031 -0.585938 1.03125 -0.484375 C 1.238281 -0.390625 1.460938 -0.34375 1.703125 -0.34375 C 1.816406 -0.34375 1.929688 -0.347656 2.046875 -0.359375 C 2.160156 -0.378906 2.269531 -0.414062 2.375 -0.46875 C 2.476562 -0.519531 2.5625 -0.585938 2.625 -0.671875 C 2.6875 -0.765625 2.71875 -0.878906 2.71875 -1.015625 C 2.71875 -1.160156 2.671875 -1.273438 2.578125 -1.359375 C 2.484375 -1.441406 2.359375 -1.503906 2.203125 -1.546875 C 2.046875 -1.585938 1.875 -1.625 1.6875 -1.65625 C 1.519531 -1.6875 1.351562 -1.71875 1.1875 -1.75 C 1.019531 -1.789062 0.875 -1.84375 0.75 -1.90625 C 0.625 -1.976562 0.519531 -2.070312 0.4375 -2.1875 C 0.363281 -2.3125 0.328125 -2.46875 0.328125 -2.65625 C 0.328125 -2.832031 0.367188 -2.984375 0.453125 -3.109375 C 0.535156 -3.234375 0.644531 -3.332031 0.78125 -3.40625 C 0.925781 -3.488281 1.078125 -3.546875 1.234375 -3.578125 C 1.390625 -3.617188 1.546875 -3.640625 1.703125 -3.640625 C 1.867188 -3.640625 2.035156 -3.617188 2.203125 -3.578125 C 2.367188 -3.546875 2.523438 -3.484375 2.671875 -3.390625 C 2.816406 -3.296875 2.941406 -3.160156 3.046875 -2.984375 L 2.71875 -2.765625 C 2.613281 -2.921875 2.46875 -3.035156 2.28125 -3.109375 C 2.09375 -3.191406 1.898438 -3.234375 1.703125 -3.234375 C 1.554688 -3.234375 1.410156 -3.210938 1.265625 -3.171875 C 1.117188 -3.128906 1 -3.0625 0.90625 -2.96875 C 0.8125 -2.882812 0.765625 -2.773438 0.765625 -2.640625 C 0.765625 -2.515625 0.804688 -2.410156 0.890625 -2.328125 C 0.984375 -2.253906 1.101562 -2.195312 1.25 -2.15625 C 1.40625 -2.113281 1.566406 -2.078125 1.734375 -2.046875 C 1.910156 -2.015625 2.082031 -1.976562 2.25 -1.9375 C 2.414062 -1.90625 2.566406 -1.847656 2.703125 -1.765625 C 2.835938 -1.691406 2.945312 -1.59375 3.03125 -1.46875 C 3.113281 -1.351562 3.15625 -1.195312 3.15625 -1 C 3.15625 -0.800781 3.109375 -0.632812 3.015625 -0.5 C 2.929688 -0.363281 2.816406 -0.253906 2.671875 -0.171875 C 2.535156 -0.0859375 2.378906 -0.0234375 2.203125 0.015625 C 2.035156 0.0546875 1.867188 0.078125 1.703125 0.078125 Z M 1.703125 0.078125 "/></g></g></g></g></g><g clip-path="url(#f5428323ab)"><path fill="#060644" d="M 63.691406 189.101562 L 65.078125 182.421875 C 64.863281 182.246094 64.664062 182.054688 64.484375 181.839844 C 64.308594 181.628906 64.152344 181.398438 64.019531 181.15625 C 63.890625 180.910156 63.785156 180.652344 63.703125 180.386719 C 63.625 180.121094 63.574219 179.851562 63.546875 179.574219 C 63.523438 179.296875 63.527344 179.019531 63.558594 178.742188 C 63.589844 178.46875 63.652344 178.199219 63.738281 177.933594 C 63.824219 177.671875 63.9375 177.417969 64.074219 177.175781 C 64.214844 176.933594 64.375 176.710938 64.558594 176.503906 C 64.742188 176.292969 64.945312 176.105469 65.167969 175.941406 C 65.390625 175.773438 65.628906 175.628906 65.878906 175.511719 C 66.128906 175.394531 66.390625 175.300781 66.660156 175.234375 C 66.929688 175.167969 67.203125 175.132812 67.484375 175.121094 C 67.761719 175.113281 68.035156 175.128906 68.308594 175.175781 C 68.585938 175.222656 68.851562 175.296875 69.109375 175.398438 C 69.367188 175.496094 69.617188 175.621094 69.847656 175.773438 C 70.082031 175.925781 70.296875 176.097656 70.496094 176.292969 L 83.824219 165.8125 C 83.652344 165.492188 83.53125 165.152344 83.464844 164.796875 L 66.285156 164.257812 C 66.242188 164.894531 66.097656 165.507812 65.851562 166.097656 C 65.601562 166.6875 65.265625 167.21875 64.835938 167.691406 C 64.40625 168.167969 63.914062 168.558594 63.351562 168.867188 C 62.789062 169.171875 62.195312 169.378906 61.5625 169.484375 L 63.125 188.988281 C 63.316406 189.007812 63.503906 189.046875 63.683594 189.101562 M 64.917969 150.71875 C 65.175781 150.757812 65.4375 150.777344 65.703125 150.777344 C 66.316406 150.777344 66.910156 150.671875 67.488281 150.460938 C 68.066406 150.253906 68.589844 149.949219 69.058594 149.554688 C 69.53125 149.160156 69.917969 148.699219 70.226562 148.167969 C 70.53125 147.636719 70.742188 147.066406 70.847656 146.460938 L 82.644531 147.136719 C 82.691406 147.535156 82.800781 147.910156 82.972656 148.273438 C 83.148438 148.632812 83.375 148.953125 83.65625 149.238281 C 83.9375 149.519531 84.257812 149.75 84.613281 149.929688 C 84.972656 150.105469 85.347656 150.21875 85.746094 150.269531 L 86.203125 160.625 C 85.851562 160.703125 85.519531 160.832031 85.207031 161.011719 C 84.894531 161.1875 84.617188 161.410156 84.367188 161.671875 C 84.121094 161.933594 83.921875 162.226562 83.761719 162.550781 C 83.605469 162.875 83.496094 163.214844 83.441406 163.570312 L 66.230469 163.03125 C 66.074219 162.042969 65.683594 161.160156 65.058594 160.378906 C 64.433594 159.597656 63.660156 159.023438 62.730469 158.65625 Z M 60.84375 147.480469 C 61.109375 148.140625 61.488281 148.722656 61.988281 149.226562 C 62.484375 149.730469 63.0625 150.117188 63.71875 150.390625 C 62.875 153.386719 62.273438 155.429688 61.402344 158.300781 C 61.148438 158.269531 62.292969 158.570312 60.632812 158.25 C 56.65625 157.472656 51.691406 164.835938 57.984375 168.90625 C 57.300781 170.894531 56.34375 173.757812 55.582031 175.820312 C 55.363281 175.75 55.140625 175.714844 54.910156 175.71875 L 54.839844 175.71875 C 52.480469 168.492188 50.144531 161.496094 47.65625 154.363281 C 48.308594 154.015625 48.824219 153.523438 49.207031 152.886719 C 49.585938 152.253906 49.773438 151.566406 49.773438 150.824219 C 49.773438 150.691406 49.765625 150.542969 49.753906 150.410156 Z M 52.472656 134.335938 C 52.617188 134.667969 52.824219 134.960938 53.089844 135.207031 C 53.355469 135.453125 53.660156 135.636719 54.003906 135.757812 C 54.347656 135.878906 54.699219 135.921875 55.058594 135.898438 C 55.421875 135.871094 55.765625 135.769531 56.085938 135.601562 L 61.808594 142.074219 C 61.296875 142.648438 60.929688 143.300781 60.707031 144.035156 C 60.484375 144.773438 60.425781 145.519531 60.53125 146.28125 L 49.445312 149.214844 C 49.257812 148.789062 49.007812 148.410156 48.691406 148.074219 C 48.378906 147.738281 48.015625 147.460938 47.605469 147.25 C 47.195312 147.039062 46.761719 146.902344 46.300781 146.839844 C 45.84375 146.777344 45.390625 146.792969 44.9375 146.886719 C 44.488281 146.984375 44.0625 147.148438 43.667969 147.390625 C 43.273438 147.628906 42.933594 147.929688 42.640625 148.289062 C 42.351562 148.648438 42.128906 149.042969 41.972656 149.476562 C 41.820312 149.914062 41.742188 150.363281 41.742188 150.824219 C 41.742188 150.964844 41.75 151.101562 41.765625 151.242188 L 34.5 153.164062 C 34.394531 152.960938 34.265625 152.777344 34.113281 152.609375 L 44.71875 137.660156 C 44.882812 137.707031 45.046875 137.726562 45.21875 137.726562 C 45.445312 137.726562 45.660156 137.6875 45.871094 137.609375 C 46.082031 137.527344 46.269531 137.414062 46.4375 137.265625 C 46.605469 137.117188 46.742188 136.941406 46.847656 136.742188 C 46.953125 136.542969 47.015625 136.332031 47.042969 136.109375 Z M 64.542969 124.769531 C 64.332031 124.769531 64.121094 124.792969 63.917969 124.847656 C 63.710938 124.898438 63.515625 124.972656 63.328125 125.070312 C 63.140625 125.167969 62.964844 125.289062 62.808594 125.429688 C 62.648438 125.570312 62.511719 125.730469 62.390625 125.902344 C 62.269531 126.078125 62.171875 126.265625 62.097656 126.464844 C 62.023438 126.664062 61.972656 126.867188 61.949219 127.078125 C 61.925781 127.289062 61.925781 127.5 61.953125 127.707031 C 61.980469 127.917969 62.03125 128.125 62.105469 128.320312 C 62.183594 128.519531 62.28125 128.703125 62.402344 128.878906 C 62.523438 129.050781 62.664062 129.210938 62.824219 129.347656 C 62.984375 129.488281 63.15625 129.605469 63.347656 129.703125 C 63.535156 129.800781 63.730469 129.875 63.9375 129.925781 C 64.144531 129.972656 64.351562 129.996094 64.566406 129.996094 C 64.777344 129.992188 64.984375 129.96875 65.191406 129.914062 C 65.398438 129.863281 65.59375 129.785156 65.78125 129.6875 C 65.964844 129.585938 66.136719 129.464844 66.296875 129.324219 L 74.792969 135.105469 C 74.589844 135.5625 74.496094 136.042969 74.507812 136.542969 C 74.515625 137.042969 74.632812 137.515625 74.851562 137.964844 L 69.5 141.964844 C 69.070312 141.515625 68.578125 141.152344 68.019531 140.875 C 67.457031 140.601562 66.871094 140.433594 66.25 140.367188 C 65.628906 140.304688 65.019531 140.347656 64.414062 140.503906 C 63.8125 140.660156 63.253906 140.914062 62.742188 141.265625 L 57.015625 134.792969 C 57.183594 134.554688 57.308594 134.292969 57.390625 134.011719 C 57.46875 133.730469 57.5 133.441406 57.484375 133.148438 C 57.46875 132.855469 57.402344 132.574219 57.292969 132.304688 C 57.179688 132.03125 57.027344 131.789062 56.835938 131.566406 C 56.640625 131.347656 56.417969 131.167969 56.160156 131.023438 C 55.90625 130.878906 55.632812 130.78125 55.347656 130.726562 C 55.058594 130.675781 54.769531 130.671875 54.480469 130.714844 C 54.191406 130.757812 53.914062 130.851562 53.65625 130.988281 L 46.957031 123.402344 C 46.996094 123.25 47.015625 123.09375 47.015625 122.9375 C 47.015625 122.734375 46.980469 122.535156 46.914062 122.34375 L 52.179688 120.214844 C 52.511719 120.671875 52.945312 120.992188 53.484375 121.167969 C 54.023438 121.347656 54.5625 121.347656 55.101562 121.175781 C 55.644531 121 56.078125 120.683594 56.414062 120.226562 C 56.746094 119.769531 56.914062 119.257812 56.914062 118.691406 C 56.914062 118.5625 56.90625 118.4375 56.886719 118.308594 L 62.011719 116.238281 C 62.199219 116.449219 62.425781 116.609375 62.691406 116.71875 C 62.953125 116.824219 63.226562 116.871094 63.507812 116.851562 C 63.792969 116.832031 64.058594 116.753906 64.304688 116.609375 C 64.550781 116.46875 64.753906 116.28125 64.914062 116.046875 L 72.523438 118.007812 C 72.523438 118.042969 72.523438 118.074219 72.523438 118.109375 C 72.523438 118.339844 72.550781 118.570312 72.605469 118.792969 C 72.660156 119.019531 72.742188 119.234375 72.851562 119.4375 C 72.957031 119.644531 73.089844 119.832031 73.242188 120.007812 C 73.398438 120.179688 73.570312 120.332031 73.761719 120.460938 C 73.953125 120.59375 74.15625 120.699219 74.375 120.78125 C 74.589844 120.863281 74.8125 120.917969 75.042969 120.945312 C 75.273438 120.972656 75.503906 120.972656 75.734375 120.941406 C 75.964844 120.914062 76.1875 120.859375 76.402344 120.773438 C 76.621094 120.691406 76.824219 120.582031 77.011719 120.449219 C 77.203125 120.316406 77.375 120.164062 77.527344 119.988281 C 77.679688 119.816406 77.808594 119.625 77.914062 119.417969 C 78.023438 119.214844 78.101562 118.996094 78.15625 118.773438 C 78.210938 118.546875 78.234375 118.320312 78.234375 118.085938 C 78.234375 117.855469 78.203125 117.625 78.144531 117.402344 C 78.089844 117.175781 78.003906 116.964844 77.894531 116.757812 C 77.785156 116.554688 77.652344 116.367188 77.5 116.195312 C 77.34375 116.023438 77.167969 115.871094 76.976562 115.742188 C 76.785156 115.613281 76.582031 115.507812 76.363281 115.425781 C 76.144531 115.347656 75.921875 115.292969 75.691406 115.269531 C 75.460938 115.242188 75.230469 115.246094 75 115.277344 C 74.769531 115.308594 74.546875 115.367188 74.332031 115.449219 C 74.117188 115.535156 73.914062 115.644531 73.726562 115.777344 C 73.535156 115.914062 73.367188 116.066406 73.214844 116.242188 C 73.0625 116.417969 72.9375 116.609375 72.832031 116.816406 L 65.222656 114.851562 C 65.203125 114.617188 65.136719 114.390625 65.03125 114.179688 C 64.925781 113.96875 64.78125 113.78125 64.601562 113.625 C 64.425781 113.46875 64.222656 113.351562 64 113.273438 C 63.777344 113.195312 63.542969 113.160156 63.308594 113.171875 C 63.070312 113.183594 62.84375 113.238281 62.628906 113.335938 C 62.410156 113.433594 62.222656 113.570312 62.058594 113.742188 C 61.894531 113.914062 61.769531 114.109375 61.679688 114.328125 C 61.59375 114.550781 61.550781 114.777344 61.550781 115.015625 L 61.550781 115.09375 L 56.425781 117.164062 C 56.09375 116.703125 55.660156 116.382812 55.121094 116.207031 C 54.582031 116.03125 54.042969 116.027344 53.503906 116.203125 C 52.960938 116.375 52.523438 116.691406 52.191406 117.152344 C 51.855469 117.609375 51.691406 118.121094 51.691406 118.691406 C 51.691406 118.816406 51.699219 118.941406 51.71875 119.066406 L 46.089844 121.332031 C 45.898438 121.222656 45.695312 121.148438 45.476562 121.113281 C 45.257812 121.074219 45.039062 121.078125 44.824219 121.117188 C 44.605469 121.160156 44.402344 121.238281 44.214844 121.351562 C 44.027344 121.46875 43.863281 121.609375 43.726562 121.785156 C 43.589844 121.957031 43.484375 122.148438 43.417969 122.359375 C 43.347656 122.570312 43.320312 122.785156 43.328125 123.007812 C 43.339844 123.226562 43.386719 123.441406 43.472656 123.644531 C 43.558594 123.847656 43.679688 124.027344 43.828125 124.191406 C 43.980469 124.351562 44.15625 124.480469 44.355469 124.578125 C 44.554688 124.675781 44.761719 124.734375 44.980469 124.757812 C 45.203125 124.78125 45.417969 124.765625 45.632812 124.707031 C 45.847656 124.652344 46.042969 124.5625 46.226562 124.433594 L 52.722656 131.792969 C 52.515625 132.089844 52.378906 132.414062 52.308594 132.765625 L 46.566406 134.648438 C 46.382812 134.449219 46.167969 134.296875 45.917969 134.191406 C 45.671875 134.085938 45.414062 134.039062 45.144531 134.050781 C 44.875 134.058594 44.621094 134.125 44.378906 134.246094 C 44.136719 134.367188 43.933594 134.535156 43.769531 134.746094 L 39.453125 133.269531 C 39.453125 133.179688 39.464844 133.082031 39.464844 132.988281 C 39.464844 132.765625 39.441406 132.546875 39.386719 132.332031 C 39.335938 132.117188 39.257812 131.914062 39.15625 131.714844 C 39.058594 131.519531 38.933594 131.339844 38.789062 131.171875 C 38.644531 131.003906 38.480469 130.859375 38.300781 130.730469 C 38.121094 130.601562 37.929688 130.496094 37.722656 130.417969 C 37.515625 130.335938 37.304688 130.277344 37.085938 130.246094 C 36.867188 130.21875 36.648438 130.214844 36.429688 130.234375 C 36.207031 130.257812 35.996094 130.304688 35.785156 130.378906 C 35.578125 130.449219 35.378906 130.546875 35.195312 130.667969 C 35.011719 130.789062 34.84375 130.929688 34.691406 131.089844 C 34.539062 131.25 34.410156 131.429688 34.300781 131.621094 C 34.191406 131.8125 34.105469 132.015625 34.046875 132.226562 C 33.984375 132.4375 33.949219 132.65625 33.941406 132.875 C 33.933594 133.097656 33.949219 133.316406 33.996094 133.53125 C 34.039062 133.75 34.105469 133.957031 34.199219 134.15625 C 34.296875 134.359375 34.410156 134.542969 34.550781 134.714844 C 34.6875 134.886719 34.84375 135.042969 35.019531 135.175781 C 35.195312 135.308594 35.382812 135.421875 35.585938 135.511719 C 35.789062 135.601562 35.996094 135.664062 36.214844 135.703125 C 36.433594 135.742188 36.652344 135.753906 36.871094 135.742188 C 37.09375 135.730469 37.308594 135.6875 37.519531 135.625 C 37.730469 135.558594 37.929688 135.46875 38.121094 135.355469 C 38.308594 135.242188 38.484375 135.109375 38.640625 134.953125 C 38.796875 134.796875 38.9375 134.625 39.050781 134.4375 L 43.367188 135.914062 C 43.367188 136.019531 43.378906 136.128906 43.398438 136.234375 L 30.691406 143.667969 C 30.539062 143.503906 30.367188 143.359375 30.179688 143.238281 C 29.992188 143.117188 29.789062 143.019531 29.578125 142.945312 C 29.367188 142.875 29.148438 142.828125 28.925781 142.808594 C 28.699219 142.789062 28.476562 142.796875 28.257812 142.828125 C 28.035156 142.863281 27.820312 142.925781 27.613281 143.011719 C 27.40625 143.097656 27.210938 143.210938 27.03125 143.34375 C 26.851562 143.476562 26.691406 143.632812 26.550781 143.804688 C 26.40625 143.980469 26.289062 144.167969 26.191406 144.371094 C 26.09375 144.574219 26.023438 144.785156 25.980469 145.003906 C 25.933594 145.222656 25.917969 145.445312 25.925781 145.671875 C 25.9375 145.894531 25.972656 146.113281 26.035156 146.332031 C 26.097656 146.546875 26.1875 146.75 26.300781 146.945312 C 26.414062 147.136719 26.546875 147.316406 26.703125 147.476562 C 26.859375 147.636719 27.035156 147.777344 27.226562 147.894531 C 27.414062 148.015625 27.617188 148.109375 27.832031 148.175781 C 28.042969 148.246094 28.261719 148.289062 28.488281 148.304688 C 28.710938 148.320312 28.933594 148.308594 29.15625 148.269531 C 29.375 148.234375 29.589844 148.167969 29.792969 148.078125 C 30 147.988281 30.191406 147.871094 30.371094 147.734375 C 30.546875 147.597656 30.707031 147.441406 30.84375 147.265625 C 30.984375 147.089844 31.101562 146.898438 31.191406 146.695312 C 31.285156 146.492188 31.351562 146.277344 31.394531 146.058594 C 31.433594 145.835938 31.449219 145.613281 31.433594 145.390625 C 31.421875 145.164062 31.382812 144.945312 31.3125 144.730469 L 43.0625 137.855469 L 33.121094 151.902344 C 32.9375 151.828125 32.75 151.769531 32.558594 151.738281 C 32.363281 151.703125 32.171875 151.6875 31.972656 151.695312 C 31.777344 151.699219 31.585938 151.726562 31.394531 151.777344 C 31.203125 151.824219 31.019531 151.890625 30.84375 151.980469 C 30.667969 152.066406 30.503906 152.171875 30.351562 152.292969 C 30.195312 152.414062 30.058594 152.550781 29.933594 152.703125 C 29.808594 152.855469 29.703125 153.019531 29.613281 153.195312 C 29.523438 153.367188 29.453125 153.550781 29.402344 153.738281 C 29.351562 153.929688 29.320312 154.121094 29.3125 154.320312 C 29.300781 154.515625 29.3125 154.710938 29.347656 154.902344 C 29.378906 155.097656 29.429688 155.285156 29.503906 155.46875 C 29.574219 155.648438 29.664062 155.824219 29.773438 155.984375 C 29.882812 156.148438 30.007812 156.300781 30.148438 156.433594 C 30.292969 156.570312 30.445312 156.691406 30.613281 156.796875 C 30.777344 156.898438 30.953125 156.984375 31.140625 157.050781 C 31.324219 157.117188 31.515625 157.160156 31.707031 157.1875 C 31.902344 157.210938 32.097656 157.21875 32.292969 157.203125 C 32.488281 157.183594 32.679688 157.148438 32.871094 157.09375 C 33.058594 157.035156 33.238281 156.957031 33.410156 156.863281 C 33.582031 156.769531 33.738281 156.65625 33.886719 156.527344 C 34.035156 156.398438 34.167969 156.253906 34.285156 156.09375 C 34.402344 155.9375 34.5 155.769531 34.582031 155.589844 C 34.660156 155.410156 34.722656 155.226562 34.765625 155.035156 C 34.804688 154.84375 34.828125 154.648438 34.828125 154.453125 C 34.828125 154.421875 34.828125 154.390625 34.828125 154.363281 L 42.089844 152.441406 C 42.542969 153.46875 43.292969 154.183594 44.339844 154.585938 L 41.292969 168.90625 C 40.582031 168.914062 39.960938 169.148438 39.429688 169.621094 L 35.070312 166.429688 C 35.164062 166.214844 35.230469 165.996094 35.269531 165.765625 C 35.3125 165.535156 35.320312 165.304688 35.304688 165.070312 C 35.289062 164.839844 35.242188 164.613281 35.171875 164.390625 C 35.097656 164.167969 35 163.960938 34.875 163.761719 C 34.75 163.566406 34.605469 163.386719 34.4375 163.222656 C 34.269531 163.0625 34.085938 162.921875 33.882812 162.804688 C 33.679688 162.691406 33.46875 162.601562 33.242188 162.535156 C 33.019531 162.472656 32.792969 162.433594 32.558594 162.425781 C 32.324219 162.417969 32.09375 162.4375 31.867188 162.488281 C 31.636719 162.535156 31.417969 162.609375 31.210938 162.710938 C 31 162.8125 30.804688 162.9375 30.625 163.085938 C 30.449219 163.238281 30.289062 163.40625 30.152344 163.59375 C 30.015625 163.78125 29.902344 163.984375 29.8125 164.199219 C 29.722656 164.414062 29.664062 164.636719 29.628906 164.871094 C 29.597656 165.101562 29.589844 165.332031 29.613281 165.5625 C 29.636719 165.796875 29.6875 166.019531 29.765625 166.242188 C 29.84375 166.460938 29.949219 166.667969 30.078125 166.859375 C 30.207031 167.054688 30.355469 167.230469 30.527344 167.386719 C 30.699219 167.546875 30.890625 167.679688 31.09375 167.792969 C 31.296875 167.902344 31.515625 167.988281 31.738281 168.046875 C 31.964844 168.105469 32.195312 168.132812 32.425781 168.136719 C 32.660156 168.140625 32.890625 168.113281 33.117188 168.058594 C 33.34375 168.003906 33.5625 167.925781 33.769531 167.816406 C 33.976562 167.710938 34.167969 167.582031 34.339844 167.425781 L 38.699219 170.613281 C 38.402344 171.296875 38.375 171.988281 38.613281 172.695312 L 27.746094 179.347656 C 27.582031 179.179688 27.402344 179.035156 27.207031 178.910156 C 27.007812 178.785156 26.800781 178.6875 26.578125 178.617188 C 26.355469 178.542969 26.128906 178.5 25.898438 178.480469 C 25.664062 178.464844 25.433594 178.476562 25.207031 178.515625 C 24.976562 178.554688 24.753906 178.621094 24.542969 178.714844 C 24.328125 178.808594 24.128906 178.929688 23.945312 179.070312 C 23.761719 179.214844 23.597656 179.375 23.453125 179.558594 C 23.308594 179.742188 23.1875 179.9375 23.089844 180.152344 C 22.996094 180.363281 22.925781 180.582031 22.882812 180.8125 C 22.84375 181.042969 22.828125 181.273438 22.84375 181.503906 C 22.855469 181.738281 22.898438 181.964844 22.96875 182.1875 C 23.039062 182.410156 23.136719 182.621094 23.257812 182.816406 C 23.378906 183.015625 23.523438 183.199219 23.6875 183.359375 C 23.855469 183.523438 24.039062 183.664062 24.238281 183.785156 C 24.4375 183.902344 24.648438 183.996094 24.871094 184.0625 C 25.097656 184.128906 25.324219 184.167969 25.554688 184.179688 C 25.789062 184.191406 26.019531 184.171875 26.246094 184.125 C 26.476562 184.082031 26.695312 184.007812 26.90625 183.910156 C 27.117188 183.808594 27.3125 183.6875 27.492188 183.539062 C 27.675781 183.394531 27.835938 183.226562 27.972656 183.039062 C 28.113281 182.855469 28.230469 182.652344 28.320312 182.4375 C 28.410156 182.222656 28.472656 182.003906 28.507812 181.773438 C 28.546875 181.542969 28.554688 181.3125 28.535156 181.078125 C 28.511719 180.847656 28.464844 180.621094 28.390625 180.402344 L 39.257812 173.746094 C 39.820312 174.332031 40.507812 174.621094 41.316406 174.621094 C 41.652344 174.621094 41.976562 174.5625 42.289062 174.449219 L 44.390625 178.21875 C 44.21875 178.371094 44.070312 178.546875 43.9375 178.734375 C 43.808594 178.925781 43.703125 179.128906 43.625 179.347656 C 43.542969 179.5625 43.492188 179.785156 43.464844 180.015625 C 43.4375 180.246094 43.441406 180.476562 43.472656 180.703125 C 43.503906 180.933594 43.5625 181.15625 43.644531 181.371094 C 43.730469 181.585938 43.839844 181.785156 43.972656 181.972656 C 44.109375 182.164062 44.261719 182.332031 44.4375 182.480469 C 44.613281 182.632812 44.804688 182.757812 45.011719 182.863281 C 45.21875 182.964844 45.433594 183.042969 45.660156 183.09375 C 45.882812 183.144531 46.113281 183.167969 46.34375 183.160156 C 46.574219 183.15625 46.800781 183.121094 47.023438 183.0625 C 47.246094 183 47.460938 182.914062 47.660156 182.800781 C 47.863281 182.6875 48.046875 182.554688 48.214844 182.394531 C 48.382812 182.238281 48.53125 182.0625 48.65625 181.867188 C 48.78125 181.675781 48.882812 181.46875 48.957031 181.25 C 49.03125 181.03125 49.082031 180.808594 49.101562 180.578125 C 49.121094 180.347656 49.113281 180.117188 49.078125 179.890625 C 49.042969 179.660156 48.976562 179.441406 48.886719 179.226562 C 48.796875 179.015625 48.683594 178.816406 48.546875 178.632812 C 48.40625 178.445312 48.25 178.28125 48.070312 178.136719 C 47.890625 177.988281 47.695312 177.867188 47.488281 177.769531 C 47.277344 177.671875 47.0625 177.597656 46.835938 177.554688 C 46.609375 177.507812 46.378906 177.492188 46.148438 177.5 C 45.917969 177.511719 45.691406 177.550781 45.472656 177.617188 L 43.328125 173.789062 C 43.492188 173.628906 43.632812 173.445312 43.753906 173.25 C 43.875 173.050781 43.96875 172.84375 44.039062 172.625 C 44.105469 172.402344 44.148438 172.179688 44.164062 171.949219 C 44.179688 171.71875 44.164062 171.488281 44.125 171.261719 C 44.082031 171.035156 44.015625 170.816406 43.921875 170.605469 C 43.828125 170.394531 43.710938 170.195312 43.570312 170.015625 C 43.425781 169.832031 43.265625 169.667969 43.085938 169.527344 C 42.902344 169.382812 42.707031 169.261719 42.5 169.167969 L 45.546875 154.84375 C 45.621094 154.84375 45.695312 154.84375 45.769531 154.84375 C 46.019531 154.84375 46.265625 154.824219 46.511719 154.777344 L 49.269531 162.574219 L 53.679688 176.101562 C 53.347656 176.328125 53.097656 176.621094 52.925781 176.988281 C 52.753906 177.351562 52.6875 177.730469 52.726562 178.132812 C 52.765625 178.53125 52.902344 178.894531 53.136719 179.21875 C 53.375 179.542969 53.675781 179.785156 54.042969 179.945312 L 51.273438 187.328125 C 50.84375 187.25 50.414062 187.25 49.980469 187.332031 C 49.550781 187.410156 49.148438 187.566406 48.777344 187.796875 C 48.40625 188.027344 48.085938 188.316406 47.820312 188.664062 C 47.554688 189.011719 47.359375 189.394531 47.238281 189.816406 L 41.976562 189.253906 C 41.929688 188.988281 41.839844 188.742188 41.703125 188.511719 C 41.5625 188.28125 41.390625 188.082031 41.179688 187.917969 C 40.972656 187.75 40.738281 187.625 40.484375 187.542969 C 40.230469 187.460938 39.96875 187.425781 39.703125 187.441406 C 39.433594 187.453125 39.175781 187.511719 38.933594 187.617188 C 38.6875 187.726562 38.46875 187.871094 38.273438 188.058594 C 38.082031 188.242188 37.929688 188.457031 37.816406 188.699219 C 37.699219 188.941406 37.632812 189.195312 37.609375 189.464844 C 37.589844 189.730469 37.613281 189.992188 37.6875 190.25 C 37.761719 190.507812 37.878906 190.742188 38.039062 190.957031 C 38.199219 191.171875 38.390625 191.351562 38.617188 191.496094 C 38.84375 191.640625 39.085938 191.742188 39.347656 191.796875 L 40.53125 207.789062 C 40.308594 207.855469 40.097656 207.949219 39.894531 208.066406 C 39.695312 208.183594 39.511719 208.328125 39.347656 208.488281 C 39.179688 208.652344 39.035156 208.835938 38.914062 209.035156 C 38.792969 209.234375 38.699219 209.445312 38.628906 209.667969 C 38.558594 209.890625 38.515625 210.117188 38.5 210.347656 C 38.488281 210.582031 38.5 210.8125 38.542969 211.042969 C 38.585938 211.273438 38.652344 211.492188 38.75 211.703125 C 38.847656 211.917969 38.96875 212.113281 39.113281 212.296875 C 39.257812 212.480469 39.421875 212.644531 39.605469 212.785156 C 39.789062 212.929688 39.988281 213.046875 40.203125 213.140625 C 40.417969 213.234375 40.636719 213.300781 40.867188 213.339844 C 41.097656 213.378906 41.328125 213.390625 41.5625 213.375 C 41.792969 213.359375 42.019531 213.3125 42.242188 213.238281 C 42.464844 213.167969 42.675781 213.070312 42.871094 212.945312 C 43.070312 212.820312 43.25 212.675781 43.410156 212.507812 C 43.574219 212.339844 43.710938 212.152344 43.828125 211.953125 C 43.945312 211.75 44.035156 211.539062 44.097656 211.3125 C 44.164062 211.089844 44.199219 210.859375 44.207031 210.628906 C 44.214844 210.394531 44.195312 210.164062 44.148438 209.933594 C 44.101562 209.707031 44.027344 209.488281 43.925781 209.277344 C 43.820312 209.066406 43.695312 208.875 43.546875 208.695312 C 43.398438 208.515625 43.230469 208.355469 43.042969 208.21875 C 42.851562 208.082031 42.652344 207.96875 42.433594 207.878906 C 42.21875 207.792969 41.996094 207.730469 41.765625 207.695312 L 40.582031 191.707031 C 41.179688 191.480469 41.605469 191.074219 41.847656 190.480469 L 47.105469 191.042969 C 47.128906 191.347656 47.1875 191.640625 47.285156 191.929688 C 47.378906 192.21875 47.511719 192.488281 47.679688 192.742188 C 47.847656 192.996094 48.042969 193.226562 48.269531 193.429688 C 48.496094 193.632812 48.746094 193.804688 49.015625 193.941406 C 49.285156 194.082031 49.570312 194.183594 49.867188 194.25 C 50.164062 194.316406 50.464844 194.34375 50.765625 194.332031 C 51.070312 194.320312 51.367188 194.269531 51.660156 194.179688 C 51.949219 194.09375 52.226562 193.96875 52.484375 193.808594 C 52.742188 193.648438 52.976562 193.457031 53.1875 193.238281 C 53.394531 193.019531 53.574219 192.777344 53.722656 192.507812 C 53.867188 192.242188 53.980469 191.960938 54.054688 191.667969 C 54.128906 191.371094 54.164062 191.074219 54.160156 190.769531 C 54.160156 190.464844 54.117188 190.167969 54.039062 189.875 C 53.957031 189.578125 53.839844 189.300781 53.691406 189.039062 C 53.539062 188.773438 53.355469 188.535156 53.140625 188.320312 C 52.925781 188.101562 52.691406 187.917969 52.429688 187.761719 L 55.304688 180.097656 C 55.496094 180.0625 55.675781 180.003906 55.847656 179.925781 C 56.023438 179.84375 56.183594 179.742188 56.332031 179.621094 C 56.480469 179.5 56.609375 179.359375 56.71875 179.203125 C 56.832031 179.046875 56.917969 178.878906 56.988281 178.699219 C 57.054688 178.519531 57.097656 178.335938 57.117188 178.144531 C 57.136719 177.953125 57.132812 177.765625 57.101562 177.574219 C 57.070312 177.386719 57.015625 177.203125 56.9375 177.027344 C 56.859375 176.851562 56.761719 176.691406 56.640625 176.542969 L 59.242188 169.386719 C 59.601562 169.476562 59.96875 169.535156 60.339844 169.554688 L 61.902344 189.054688 C 60.34375 189.421875 59.183594 190.941406 59.183594 192.492188 C 59.183594 194.046875 60.019531 195.132812 61.226562 195.695312 L 53.453125 219.660156 L 53.335938 219.660156 C 53.105469 219.660156 52.878906 219.6875 52.652344 219.742188 C 52.429688 219.796875 52.214844 219.878906 52.011719 219.988281 C 51.804688 220.09375 51.617188 220.226562 51.445312 220.378906 C 51.273438 220.535156 51.121094 220.707031 50.988281 220.894531 C 50.859375 221.085938 50.753906 221.289062 50.671875 221.507812 C 50.589844 221.722656 50.535156 221.945312 50.507812 222.175781 C 50.480469 222.40625 50.480469 222.632812 50.511719 222.863281 C 50.539062 223.09375 50.59375 223.316406 50.675781 223.53125 C 50.761719 223.746094 50.867188 223.949219 51 224.140625 C 51.132812 224.328125 51.285156 224.5 51.457031 224.652344 C 51.632812 224.804688 51.820312 224.933594 52.027344 225.042969 C 52.230469 225.148438 52.445312 225.230469 52.671875 225.28125 C 52.894531 225.335938 53.125 225.363281 53.355469 225.363281 C 53.585938 225.363281 53.8125 225.332031 54.035156 225.277344 C 54.261719 225.21875 54.476562 225.136719 54.679688 225.027344 C 54.882812 224.921875 55.070312 224.789062 55.242188 224.636719 C 55.414062 224.480469 55.566406 224.308594 55.695312 224.117188 C 55.828125 223.925781 55.933594 223.722656 56.011719 223.507812 C 56.09375 223.289062 56.148438 223.066406 56.175781 222.835938 C 56.199219 222.605469 56.199219 222.378906 56.167969 222.148438 C 56.140625 221.917969 56.085938 221.695312 56 221.480469 C 55.917969 221.265625 55.808594 221.0625 55.675781 220.875 C 55.542969 220.683594 55.390625 220.515625 55.214844 220.363281 C 55.042969 220.210938 54.851562 220.082031 54.648438 219.976562 L 62.421875 196.011719 C 62.515625 196.019531 61.6875 196.027344 62.714844 196.027344 C 63.738281 196.027344 66.246094 194.054688 66.246094 192.496094 C 66.246094 190.933594 65.675781 190.285156 64.800781 189.644531 L 66.148438 183.035156 C 66.539062 183.1875 66.941406 183.277344 67.359375 183.304688 C 67.777344 183.332031 68.1875 183.296875 68.59375 183.195312 C 69 183.097656 69.382812 182.941406 69.742188 182.722656 C 70.097656 182.507812 70.417969 182.242188 70.695312 181.929688 C 70.96875 181.617188 71.195312 181.269531 71.363281 180.886719 C 71.535156 180.503906 71.644531 180.105469 71.695312 179.691406 C 71.742188 179.277344 71.726562 178.863281 71.648438 178.453125 C 71.570312 178.042969 71.433594 177.652344 71.238281 177.28125 L 84.585938 166.78125 C 84.625 166.816406 84.660156 166.847656 84.699219 166.882812 L 78.765625 177.351562 C 78.476562 177.261719 78.183594 177.214844 77.878906 177.214844 C 77.265625 177.214844 76.707031 177.390625 76.203125 177.738281 C 75.699219 178.085938 75.339844 178.546875 75.121094 179.121094 C 74.90625 179.691406 74.871094 180.277344 75.015625 180.871094 C 75.164062 181.46875 75.464844 181.96875 75.921875 182.375 L 70.886719 197.074219 C 70.609375 196.988281 70.972656 196.9375 70 196.9375 C 69.03125 196.9375 67.050781 198.257812 67.050781 199.890625 C 67.050781 200.28125 67.125 200.660156 67.273438 201.019531 C 67.425781 201.382812 67.636719 201.699219 67.914062 201.976562 C 68.191406 202.253906 68.511719 202.46875 68.871094 202.617188 C 69.234375 202.769531 69.609375 202.84375 70 202.84375 C 71.632812 202.84375 72.953125 201.144531 72.953125 199.890625 C 72.953125 198.636719 72.570312 198.226562 71.960938 197.683594 L 76.996094 182.984375 L 77.152344 183.027344 L 80.101562 191.445312 C 79.863281 191.5 79.640625 191.589844 79.433594 191.722656 C 79.230469 191.851562 79.050781 192.015625 78.902344 192.207031 C 78.75 192.398438 78.636719 192.613281 78.5625 192.84375 C 78.484375 193.074219 78.453125 193.3125 78.457031 193.558594 C 78.457031 194.667969 79.433594 195.734375 80.636719 195.734375 C 81.839844 195.734375 82.816406 194.636719 82.816406 193.558594 C 82.816406 192.476562 82.195312 191.785156 81.332031 191.496094 L 78.382812 183.074219 C 78.71875 183.015625 79.039062 182.902344 79.339844 182.730469 C 79.636719 182.5625 79.898438 182.34375 80.121094 182.082031 C 80.34375 181.820312 80.519531 181.53125 80.640625 181.207031 C 80.761719 180.886719 80.824219 180.554688 80.828125 180.210938 L 94.3125 177.511719 C 94.394531 177.664062 94.492188 177.808594 94.609375 177.9375 C 94.722656 178.066406 94.851562 178.179688 94.992188 178.28125 C 95.136719 178.378906 95.285156 178.460938 95.449219 178.523438 C 95.609375 178.585938 95.777344 178.628906 95.949219 178.652344 C 96.121094 178.675781 96.292969 178.679688 96.464844 178.660156 C 96.636719 178.644531 96.804688 178.605469 96.96875 178.546875 C 97.132812 178.488281 97.285156 178.414062 97.429688 178.316406 C 97.574219 178.222656 97.707031 178.113281 97.824219 177.984375 C 97.945312 177.859375 98.046875 177.71875 98.132812 177.570312 C 98.21875 177.417969 98.285156 177.261719 98.332031 177.09375 C 98.378906 176.925781 98.40625 176.757812 98.414062 176.582031 C 98.421875 176.410156 98.40625 176.238281 98.375 176.070312 C 98.339844 175.898438 98.285156 175.734375 98.210938 175.578125 C 98.140625 175.421875 98.050781 175.273438 97.941406 175.140625 C 97.832031 175.003906 97.710938 174.882812 97.574219 174.777344 C 97.4375 174.671875 97.289062 174.582031 97.132812 174.511719 C 96.972656 174.441406 96.808594 174.386719 96.636719 174.355469 C 96.46875 174.324219 96.296875 174.3125 96.121094 174.324219 C 95.949219 174.332031 95.78125 174.359375 95.613281 174.410156 C 95.449219 174.460938 95.289062 174.527344 95.140625 174.617188 C 94.992188 174.703125 94.855469 174.808594 94.730469 174.929688 C 94.605469 175.046875 94.496094 175.183594 94.402344 175.328125 C 94.308594 175.472656 94.234375 175.628906 94.179688 175.792969 C 94.121094 175.957031 94.085938 176.125 94.070312 176.296875 L 80.578125 178.996094 C 80.40625 178.59375 80.152344 178.25 79.828125 177.960938 L 85.761719 167.492188 C 86 167.574219 86.242188 167.632812 86.488281 167.667969 C 86.738281 167.699219 86.988281 167.707031 87.238281 167.6875 C 87.488281 167.667969 87.734375 167.621094 87.972656 167.550781 C 88.214844 167.480469 88.445312 167.382812 88.664062 167.261719 C 88.886719 167.144531 89.089844 167.003906 89.28125 166.839844 C 89.472656 166.675781 89.644531 166.496094 89.796875 166.296875 C 89.949219 166.097656 90.082031 165.882812 90.1875 165.660156 C 90.296875 165.433594 90.378906 165.195312 90.4375 164.953125 C 90.496094 164.707031 90.527344 164.460938 90.535156 164.210938 C 90.542969 163.960938 90.523438 163.710938 90.476562 163.464844 C 90.429688 163.21875 90.359375 162.976562 90.265625 162.746094 C 90.167969 162.515625 90.046875 162.296875 89.90625 162.089844 C 89.765625 161.882812 89.601562 161.691406 89.417969 161.519531 C 89.238281 161.347656 89.039062 161.195312 88.824219 161.066406 C 88.613281 160.933594 88.386719 160.828125 88.148438 160.742188 C 87.914062 160.660156 87.671875 160.601562 87.421875 160.570312 L 86.960938 150.210938 C 87.5625 150.078125 88.089844 149.808594 88.546875 149.402344 L 98.925781 157.742188 C 98.785156 158.003906 98.675781 158.277344 98.597656 158.5625 C 98.523438 158.851562 98.484375 159.140625 98.480469 159.4375 C 98.476562 159.734375 98.511719 160.027344 98.578125 160.316406 C 98.648438 160.605469 98.753906 160.882812 98.890625 161.144531 C 99.03125 161.40625 99.199219 161.648438 99.394531 161.867188 C 99.59375 162.089844 99.816406 162.285156 100.0625 162.449219 C 100.308594 162.613281 100.570312 162.746094 100.851562 162.847656 C 101.128906 162.949219 101.417969 163.011719 101.714844 163.042969 C 102.007812 163.070312 102.304688 163.0625 102.597656 163.019531 C 102.890625 162.972656 103.175781 162.894531 103.449219 162.777344 C 103.722656 162.664062 103.976562 162.519531 104.214844 162.339844 C 104.453125 162.160156 104.664062 161.957031 104.847656 161.726562 C 105.035156 161.492188 105.191406 161.242188 105.316406 160.972656 C 105.4375 160.703125 105.527344 160.421875 105.582031 160.132812 C 105.636719 159.839844 105.65625 159.546875 105.636719 159.25 C 105.617188 158.953125 105.5625 158.664062 105.472656 158.382812 C 105.378906 158.097656 105.257812 157.832031 105.097656 157.578125 C 104.941406 157.328125 104.757812 157.097656 104.542969 156.894531 C 104.328125 156.6875 104.09375 156.511719 103.835938 156.363281 C 103.578125 156.21875 103.304688 156.105469 103.019531 156.027344 C 102.734375 155.945312 102.441406 155.902344 102.144531 155.894531 C 101.847656 155.890625 101.554688 155.917969 101.265625 155.984375 C 100.976562 156.050781 100.699219 156.152344 100.433594 156.285156 C 100.171875 156.421875 99.925781 156.585938 99.703125 156.78125 L 89.339844 148.441406 C 89.460938 148.21875 89.5625 147.984375 89.632812 147.738281 C 89.707031 147.496094 89.753906 147.246094 89.773438 146.988281 C 89.792969 146.734375 89.785156 146.480469 89.75 146.226562 C 89.714844 145.972656 89.65625 145.726562 89.566406 145.488281 C 89.480469 145.246094 89.367188 145.019531 89.230469 144.804688 C 89.09375 144.585938 88.9375 144.386719 88.757812 144.207031 C 88.578125 144.023438 88.382812 143.863281 88.167969 143.722656 C 87.953125 143.582031 87.730469 143.464844 87.488281 143.375 C 87.25 143.28125 87.007812 143.21875 86.753906 143.179688 C 86.5 143.136719 86.246094 143.125 85.992188 143.140625 C 85.738281 143.15625 85.484375 143.199219 85.238281 143.269531 C 84.992188 143.335938 84.757812 143.429688 84.53125 143.550781 C 84.304688 143.671875 84.09375 143.8125 83.898438 143.976562 C 83.703125 144.140625 83.527344 144.324219 83.371094 144.527344 C 83.214844 144.730469 83.082031 144.945312 82.972656 145.175781 C 82.863281 145.40625 82.78125 145.648438 82.722656 145.894531 L 70.921875 145.222656 C 70.871094 144.40625 70.644531 143.644531 70.238281 142.9375 L 75.59375 138.941406 C 75.800781 139.136719 76.03125 139.300781 76.28125 139.433594 C 76.527344 139.570312 76.789062 139.671875 77.066406 139.742188 C 77.339844 139.808594 77.617188 139.84375 77.902344 139.84375 C 78.183594 139.84375 78.464844 139.808594 78.738281 139.738281 C 79.011719 139.664062 79.273438 139.5625 79.523438 139.425781 C 79.769531 139.289062 80 139.125 80.203125 138.929688 C 80.410156 138.738281 80.589844 138.523438 80.746094 138.28125 C 80.898438 138.042969 81.019531 137.789062 81.105469 137.523438 L 96.363281 139.636719 C 96.386719 139.84375 96.433594 140.050781 96.503906 140.25 C 96.578125 140.449219 96.671875 140.636719 96.789062 140.8125 C 96.90625 140.988281 97.042969 141.148438 97.195312 141.289062 C 97.351562 141.433594 97.523438 141.554688 97.710938 141.65625 C 97.894531 141.757812 98.089844 141.835938 98.292969 141.890625 C 98.5 141.945312 98.707031 141.972656 98.917969 141.976562 C 99.128906 141.980469 99.339844 141.957031 99.542969 141.910156 C 99.75 141.863281 99.949219 141.792969 100.136719 141.695312 C 100.324219 141.601562 100.5 141.484375 100.660156 141.347656 C 100.820312 141.210938 100.960938 141.054688 101.085938 140.882812 C 101.207031 140.710938 101.308594 140.527344 101.386719 140.328125 C 101.464844 140.132812 101.515625 139.929688 101.546875 139.71875 C 101.574219 139.511719 101.578125 139.300781 101.554688 139.089844 C 101.53125 138.878906 101.484375 138.675781 101.414062 138.476562 C 101.339844 138.277344 101.246094 138.089844 101.128906 137.914062 C 101.011719 137.738281 100.875 137.582031 100.71875 137.4375 C 100.5625 137.296875 100.390625 137.175781 100.207031 137.074219 C 100.019531 136.972656 99.824219 136.894531 99.621094 136.84375 C 99.414062 136.789062 99.207031 136.761719 98.996094 136.757812 C 98.785156 136.753906 98.574219 136.777344 98.371094 136.824219 C 98.164062 136.875 97.964844 136.945312 97.777344 137.039062 C 97.589844 137.136719 97.414062 137.253906 97.253906 137.390625 C 97.09375 137.53125 96.953125 137.683594 96.832031 137.859375 C 96.710938 138.03125 96.609375 138.214844 96.53125 138.410156 L 81.273438 136.3125 C 81.253906 135.839844 81.140625 135.394531 80.933594 134.972656 L 88.410156 129.394531 C 88.570312 129.527344 88.75 129.640625 88.9375 129.734375 C 89.128906 129.824219 89.328125 129.890625 89.535156 129.933594 C 89.742188 129.976562 89.949219 129.996094 90.160156 129.988281 C 90.371094 129.980469 90.578125 129.949219 90.78125 129.890625 C 90.984375 129.832031 91.179688 129.75 91.363281 129.644531 C 91.542969 129.542969 91.714844 129.417969 91.867188 129.269531 C 92.019531 129.125 92.152344 128.960938 92.265625 128.785156 C 92.378906 128.605469 92.46875 128.417969 92.535156 128.21875 C 92.605469 128.019531 92.648438 127.8125 92.664062 127.601562 C 92.683594 127.390625 92.675781 127.183594 92.640625 126.972656 C 92.609375 126.765625 92.550781 126.5625 92.46875 126.367188 C 92.386719 126.175781 92.28125 125.992188 92.15625 125.824219 C 92.03125 125.652344 91.886719 125.503906 91.722656 125.367188 C 91.558594 125.234375 91.382812 125.121094 91.191406 125.03125 C 91 124.941406 90.800781 124.875 90.59375 124.832031 C 90.386719 124.789062 90.179688 124.769531 89.96875 124.777344 C 89.757812 124.785156 89.550781 124.820312 89.347656 124.878906 C 89.144531 124.9375 88.953125 125.019531 88.769531 125.125 C 88.585938 125.230469 88.417969 125.355469 88.265625 125.5 C 88.113281 125.644531 87.980469 125.808594 87.867188 125.988281 C 87.753906 126.164062 87.664062 126.355469 87.597656 126.554688 C 87.527344 126.753906 87.488281 126.960938 87.46875 127.171875 C 87.453125 127.382812 87.460938 127.589844 87.496094 127.800781 C 87.527344 128.007812 87.585938 128.207031 87.667969 128.402344 L 80.191406 133.984375 C 79.867188 133.683594 79.5 133.457031 79.089844 133.300781 C 78.679688 133.148438 78.257812 133.074219 77.816406 133.082031 C 77.378906 133.09375 76.957031 133.183594 76.554688 133.355469 C 76.152344 133.53125 75.796875 133.773438 75.488281 134.085938 L 66.992188 128.300781 C 67.066406 128.101562 67.113281 127.898438 67.140625 127.691406 C 67.164062 127.480469 67.164062 127.269531 67.136719 127.0625 C 67.113281 126.851562 67.0625 126.648438 66.984375 126.449219 C 66.910156 126.253906 66.8125 126.066406 66.691406 125.894531 C 66.574219 125.722656 66.433594 125.5625 66.273438 125.425781 C 66.117188 125.285156 65.945312 125.164062 65.757812 125.066406 C 65.570312 124.96875 65.375 124.894531 65.167969 124.84375 C 64.964844 124.792969 64.757812 124.769531 64.546875 124.765625 Z M 112.066406 150.988281 C 114.921875 199.007812 59.238281 189.84375 58.304688 246.445312 C 65.742188 234.492188 73.664062 229.726562 82.078125 232.148438 C 94.152344 240.183594 101.726562 240.277344 104.800781 232.433594 C 104.324219 229.285156 105.109375 227.117188 107.160156 225.921875 C 110.835938 225.644531 112.230469 223.828125 111.34375 220.46875 C 114.460938 221.242188 116.191406 220.4375 116.53125 218.050781 C 115.316406 213.679688 117.589844 211.417969 123.351562 211.269531 C 127.445312 210.925781 129.3125 209.433594 128.945312 206.796875 C 127.484375 199.496094 126.480469 194.320312 125.933594 191.273438 C 124.597656 186.613281 125.339844 182.167969 128.164062 177.933594 C 138.59375 154.539062 132.855469 134.183594 110.953125 116.867188 C 80.839844 96.464844 53.214844 100.074219 36.1875 119.390625 C 37.785156 117.980469 39.476562 116.691406 41.253906 115.519531 C 43.035156 114.347656 44.886719 113.304688 46.8125 112.390625 C 48.738281 111.476562 50.71875 110.699219 52.753906 110.0625 C 54.789062 109.425781 56.855469 108.933594 58.957031 108.585938 C 61.0625 108.238281 63.179688 108.039062 65.308594 107.988281 C 67.441406 107.9375 69.5625 108.035156 71.679688 108.28125 C 73.796875 108.527344 75.886719 108.917969 77.949219 109.453125 C 80.011719 109.992188 82.027344 110.671875 83.996094 111.492188 C 85.964844 112.308594 87.863281 113.261719 89.699219 114.347656 C 91.535156 115.433594 93.285156 116.640625 94.949219 117.96875 C 96.613281 119.300781 98.179688 120.738281 99.644531 122.289062 C 101.109375 123.835938 102.457031 125.480469 103.691406 127.21875 C 104.925781 128.957031 106.035156 130.769531 107.015625 132.664062 C 107.996094 134.554688 108.839844 136.507812 109.546875 138.515625 C 110.253906 140.527344 110.820312 142.578125 111.242188 144.667969 C 111.664062 146.757812 111.9375 148.863281 112.0625 150.992188 Z M 112.066406 150.988281 " fill-opacity="1" fill-rule="evenodd"/></g><g clip-path="url(#c0e96f4253)"><g clip-path="url(#19b59efffe)"><path fill="#060644" d="M 22.832031 96.460938 L 138.609375 96.460938 L 138.609375 246.441406 L 22.832031 246.441406 Z M 22.832031 96.460938 " fill-opacity="1" fill-rule="nonzero"/></g></g></svg>